%TF.GenerationSoftware,KiCad,Pcbnew,9.0.7*%
%TF.CreationDate,2026-02-25T16:19:16+04:00*%
%TF.ProjectId,Launchpad v1,4c61756e-6368-4706-9164-2076312e6b69,rev?*%
%TF.SameCoordinates,Original*%
%TF.FileFunction,Copper,L1,Top*%
%TF.FilePolarity,Positive*%
%FSLAX46Y46*%
G04 Gerber Fmt 4.6, Leading zero omitted, Abs format (unit mm)*
G04 Created by KiCad (PCBNEW 9.0.7) date 2026-02-25 16:19:16*
%MOMM*%
%LPD*%
G01*
G04 APERTURE LIST*
G04 Aperture macros list*
%AMRoundRect*
0 Rectangle with rounded corners*
0 $1 Rounding radius*
0 $2 $3 $4 $5 $6 $7 $8 $9 X,Y pos of 4 corners*
0 Add a 4 corners polygon primitive as box body*
4,1,4,$2,$3,$4,$5,$6,$7,$8,$9,$2,$3,0*
0 Add four circle primitives for the rounded corners*
1,1,$1+$1,$2,$3*
1,1,$1+$1,$4,$5*
1,1,$1+$1,$6,$7*
1,1,$1+$1,$8,$9*
0 Add four rect primitives between the rounded corners*
20,1,$1+$1,$2,$3,$4,$5,0*
20,1,$1+$1,$4,$5,$6,$7,0*
20,1,$1+$1,$6,$7,$8,$9,0*
20,1,$1+$1,$8,$9,$2,$3,0*%
G04 Aperture macros list end*
%TA.AperFunction,ComponentPad*%
%ADD10RoundRect,0.249999X-0.850001X-0.850001X0.850001X-0.850001X0.850001X0.850001X-0.850001X0.850001X0*%
%TD*%
%TA.AperFunction,ComponentPad*%
%ADD11C,2.200000*%
%TD*%
%TA.AperFunction,ComponentPad*%
%ADD12RoundRect,0.170000X-0.680000X-0.680000X0.680000X-0.680000X0.680000X0.680000X-0.680000X0.680000X0*%
%TD*%
%TA.AperFunction,ComponentPad*%
%ADD13C,1.700000*%
%TD*%
%TA.AperFunction,ComponentPad*%
%ADD14R,1.600000X1.600000*%
%TD*%
%TA.AperFunction,ComponentPad*%
%ADD15O,1.600000X1.600000*%
%TD*%
%TA.AperFunction,ViaPad*%
%ADD16C,0.600000*%
%TD*%
%TA.AperFunction,Conductor*%
%ADD17C,0.200000*%
%TD*%
G04 APERTURE END LIST*
D10*
%TO.P,D49,1,K*%
%TO.N,COL 1*%
X191868800Y-100193700D03*
D11*
%TO.P,D49,2,A*%
%TO.N,Net-(D49-A)*%
X202028800Y-100193700D03*
%TD*%
D10*
%TO.P,D50,1,K*%
%TO.N,COL 1*%
X191868800Y-104443700D03*
D11*
%TO.P,D50,2,A*%
%TO.N,Net-(D50-A)*%
X202028800Y-104443700D03*
%TD*%
D10*
%TO.P,D55,1,K*%
%TO.N,COL 1*%
X191868800Y-125693700D03*
D11*
%TO.P,D55,2,A*%
%TO.N,Net-(D55-A)*%
X202028800Y-125693700D03*
%TD*%
D10*
%TO.P,D51,1,K*%
%TO.N,COL 1*%
X191868800Y-108693700D03*
D11*
%TO.P,D51,2,A*%
%TO.N,Net-(D51-A)*%
X202028800Y-108693700D03*
%TD*%
D10*
%TO.P,D54,1,K*%
%TO.N,COL 1*%
X191868800Y-121443700D03*
D11*
%TO.P,D54,2,A*%
%TO.N,Net-(D54-A)*%
X202028800Y-121443700D03*
%TD*%
D10*
%TO.P,D56,1,K*%
%TO.N,COL 1*%
X191868800Y-129943700D03*
D11*
%TO.P,D56,2,A*%
%TO.N,Net-(D56-A)*%
X202028800Y-129943700D03*
%TD*%
D10*
%TO.P,D63,1,K*%
%TO.N,COL 1*%
X191868800Y-159693700D03*
D11*
%TO.P,D63,2,A*%
%TO.N,Net-(D63-A)*%
X202028800Y-159693700D03*
%TD*%
D10*
%TO.P,D52,1,K*%
%TO.N,COL 1*%
X191868800Y-112943700D03*
D11*
%TO.P,D52,2,A*%
%TO.N,Net-(D52-A)*%
X202028800Y-112943700D03*
%TD*%
D10*
%TO.P,D53,1,K*%
%TO.N,COL 1*%
X191868800Y-117193700D03*
D11*
%TO.P,D53,2,A*%
%TO.N,Net-(D53-A)*%
X202028800Y-117193700D03*
%TD*%
D10*
%TO.P,D60,1,K*%
%TO.N,COL 1*%
X191868800Y-146943700D03*
D11*
%TO.P,D60,2,A*%
%TO.N,Net-(D60-A)*%
X202028800Y-146943700D03*
%TD*%
D10*
%TO.P,D61,1,K*%
%TO.N,COL 1*%
X191868800Y-151193700D03*
D11*
%TO.P,D61,2,A*%
%TO.N,Net-(D61-A)*%
X202028800Y-151193700D03*
%TD*%
D10*
%TO.P,D57,1,K*%
%TO.N,COL 1*%
X191868800Y-134193700D03*
D11*
%TO.P,D57,2,A*%
%TO.N,Net-(D57-A)*%
X202028800Y-134193700D03*
%TD*%
D10*
%TO.P,D58,1,K*%
%TO.N,COL 1*%
X191868800Y-138443700D03*
D11*
%TO.P,D58,2,A*%
%TO.N,Net-(D58-A)*%
X202028800Y-138443700D03*
%TD*%
D10*
%TO.P,D59,1,K*%
%TO.N,COL 1*%
X191868800Y-142693700D03*
D11*
%TO.P,D59,2,A*%
%TO.N,Net-(D59-A)*%
X202028800Y-142693700D03*
%TD*%
D10*
%TO.P,D62,1,K*%
%TO.N,COL 1*%
X191868800Y-155443700D03*
D11*
%TO.P,D62,2,A*%
%TO.N,Net-(D62-A)*%
X202028800Y-155443700D03*
%TD*%
%TO.P,SW59,2,2*%
%TO.N,Net-(D59-A)*%
X160710000Y-66516200D03*
%TO.P,SW59,1,1*%
%TO.N,COL 2*%
X167060000Y-63976200D03*
%TD*%
%TO.P,SW57,1,1*%
%TO.N,COL 2*%
X167060000Y-25876200D03*
%TO.P,SW57,2,2*%
%TO.N,Net-(D57-A)*%
X160710000Y-28416200D03*
%TD*%
%TO.P,SW58,1,1*%
%TO.N,COL 2*%
X167060000Y-44926200D03*
%TO.P,SW58,2,2*%
%TO.N,Net-(D58-A)*%
X160710000Y-47466200D03*
%TD*%
%TO.P,SW60,2,2*%
%TO.N,Net-(D60-A)*%
X160710000Y-85566200D03*
%TO.P,SW60,1,1*%
%TO.N,COL 2*%
X167060000Y-83026200D03*
%TD*%
%TO.P,D31,2,A*%
%TO.N,Net-(D31-A)*%
X201037500Y-84187500D03*
D10*
%TO.P,D31,1,K*%
%TO.N,COL 1*%
X190877500Y-84187500D03*
%TD*%
D11*
%TO.P,D35,2,A*%
%TO.N,Net-(D35-A)*%
X188118800Y-108693700D03*
D10*
%TO.P,D35,1,K*%
%TO.N,COL 1*%
X177958800Y-108693700D03*
%TD*%
D11*
%TO.P,D33,2,A*%
%TO.N,Net-(D33-A)*%
X188118800Y-100193700D03*
D10*
%TO.P,D33,1,K*%
%TO.N,COL 1*%
X177958800Y-100193700D03*
%TD*%
D11*
%TO.P,D40,2,A*%
%TO.N,Net-(D40-A)*%
X188118800Y-129943700D03*
D10*
%TO.P,D40,1,K*%
%TO.N,COL 1*%
X177958800Y-129943700D03*
%TD*%
D11*
%TO.P,D38,2,A*%
%TO.N,Net-(D38-A)*%
X188118800Y-121443700D03*
D10*
%TO.P,D38,1,K*%
%TO.N,COL 1*%
X177958800Y-121443700D03*
%TD*%
D11*
%TO.P,D43,2,A*%
%TO.N,Net-(D43-A)*%
X188118800Y-142693700D03*
D10*
%TO.P,D43,1,K*%
%TO.N,COL 1*%
X177958800Y-142693700D03*
%TD*%
D11*
%TO.P,D34,2,A*%
%TO.N,Net-(D34-A)*%
X188118800Y-104443700D03*
D10*
%TO.P,D34,1,K*%
%TO.N,COL 1*%
X177958800Y-104443700D03*
%TD*%
D11*
%TO.P,D36,2,A*%
%TO.N,Net-(D36-A)*%
X188118800Y-112943700D03*
D10*
%TO.P,D36,1,K*%
%TO.N,COL 1*%
X177958800Y-112943700D03*
%TD*%
D11*
%TO.P,D30,2,A*%
%TO.N,Net-(D30-A)*%
X201037500Y-79937500D03*
D10*
%TO.P,D30,1,K*%
%TO.N,COL 1*%
X190877500Y-79937500D03*
%TD*%
D11*
%TO.P,D32,2,A*%
%TO.N,Net-(D32-A)*%
X201037500Y-88437500D03*
D10*
%TO.P,D32,1,K*%
%TO.N,COL 1*%
X190877500Y-88437500D03*
%TD*%
D11*
%TO.P,D37,2,A*%
%TO.N,Net-(D37-A)*%
X188118800Y-117193700D03*
D10*
%TO.P,D37,1,K*%
%TO.N,COL 1*%
X177958800Y-117193700D03*
%TD*%
D11*
%TO.P,D39,2,A*%
%TO.N,Net-(D39-A)*%
X188118800Y-125693700D03*
D10*
%TO.P,D39,1,K*%
%TO.N,COL 1*%
X177958800Y-125693700D03*
%TD*%
D11*
%TO.P,D41,2,A*%
%TO.N,Net-(D41-A)*%
X188118800Y-134193700D03*
D10*
%TO.P,D41,1,K*%
%TO.N,COL 1*%
X177958800Y-134193700D03*
%TD*%
D11*
%TO.P,D42,2,A*%
%TO.N,Net-(D42-A)*%
X188118800Y-138443700D03*
D10*
%TO.P,D42,1,K*%
%TO.N,COL 1*%
X177958800Y-138443700D03*
%TD*%
D11*
%TO.P,D48,2,A*%
%TO.N,Net-(D48-A)*%
X188118800Y-163943700D03*
D10*
%TO.P,D48,1,K*%
%TO.N,COL 1*%
X177958800Y-163943700D03*
%TD*%
D11*
%TO.P,D44,2,A*%
%TO.N,Net-(D44-A)*%
X188118800Y-146943700D03*
D10*
%TO.P,D44,1,K*%
%TO.N,COL 1*%
X177958800Y-146943700D03*
%TD*%
D11*
%TO.P,D47,2,A*%
%TO.N,Net-(D47-A)*%
X188118800Y-159693700D03*
D10*
%TO.P,D47,1,K*%
%TO.N,COL 1*%
X177958800Y-159693700D03*
%TD*%
D11*
%TO.P,D46,2,A*%
%TO.N,Net-(D46-A)*%
X188118800Y-155443700D03*
D10*
%TO.P,D46,1,K*%
%TO.N,COL 1*%
X177958800Y-155443700D03*
%TD*%
D11*
%TO.P,D45,2,A*%
%TO.N,Net-(D45-A)*%
X188118800Y-151193700D03*
D10*
%TO.P,D45,1,K*%
%TO.N,COL 1*%
X177958800Y-151193700D03*
%TD*%
D11*
%TO.P,D64,2,A*%
%TO.N,Net-(D64-A)*%
X202028800Y-163943700D03*
D10*
%TO.P,D64,1,K*%
%TO.N,COL 1*%
X191868800Y-163943700D03*
%TD*%
D11*
%TO.P,D1,2,A*%
%TO.N,Net-(D1-A)*%
X187127500Y-24687500D03*
D10*
%TO.P,D1,1,K*%
%TO.N,COL 1*%
X176967500Y-24687500D03*
%TD*%
D11*
%TO.P,D5,2,A*%
%TO.N,Net-(D5-A)*%
X187127500Y-41687500D03*
D10*
%TO.P,D5,1,K*%
%TO.N,COL 1*%
X176967500Y-41687500D03*
%TD*%
D11*
%TO.P,D2,2,A*%
%TO.N,Net-(D2-A)*%
X187127500Y-28937500D03*
D10*
%TO.P,D2,1,K*%
%TO.N,COL 1*%
X176967500Y-28937500D03*
%TD*%
D11*
%TO.P,D8,2,A*%
%TO.N,Net-(D8-A)*%
X187127500Y-54437500D03*
D10*
%TO.P,D8,1,K*%
%TO.N,COL 1*%
X176967500Y-54437500D03*
%TD*%
D11*
%TO.P,D3,2,A*%
%TO.N,Net-(D3-A)*%
X187127500Y-33187500D03*
D10*
%TO.P,D3,1,K*%
%TO.N,COL 1*%
X176967500Y-33187500D03*
%TD*%
D11*
%TO.P,D4,2,A*%
%TO.N,Net-(D4-A)*%
X187127500Y-37437500D03*
D10*
%TO.P,D4,1,K*%
%TO.N,COL 1*%
X176967500Y-37437500D03*
%TD*%
D11*
%TO.P,D6,2,A*%
%TO.N,Net-(D6-A)*%
X187127500Y-45937500D03*
D10*
%TO.P,D6,1,K*%
%TO.N,COL 1*%
X176967500Y-45937500D03*
%TD*%
D11*
%TO.P,D7,2,A*%
%TO.N,Net-(D7-A)*%
X187127500Y-50187500D03*
D10*
%TO.P,D7,1,K*%
%TO.N,COL 1*%
X176967500Y-50187500D03*
%TD*%
D11*
%TO.P,D12,2,A*%
%TO.N,Net-(D12-A)*%
X187127500Y-71437500D03*
D10*
%TO.P,D12,1,K*%
%TO.N,COL 1*%
X176967500Y-71437500D03*
%TD*%
D11*
%TO.P,D13,2,A*%
%TO.N,Net-(D13-A)*%
X187127500Y-75687500D03*
D10*
%TO.P,D13,1,K*%
%TO.N,COL 1*%
X176967500Y-75687500D03*
%TD*%
D11*
%TO.P,D19,2,A*%
%TO.N,Net-(D19-A)*%
X201037500Y-33187500D03*
D10*
%TO.P,D19,1,K*%
%TO.N,COL 1*%
X190877500Y-33187500D03*
%TD*%
D11*
%TO.P,D17,2,A*%
%TO.N,Net-(D17-A)*%
X201037500Y-24687500D03*
D10*
%TO.P,D17,1,K*%
%TO.N,COL 1*%
X190877500Y-24687500D03*
%TD*%
D11*
%TO.P,D15,2,A*%
%TO.N,Net-(D15-A)*%
X187127500Y-84187500D03*
D10*
%TO.P,D15,1,K*%
%TO.N,COL 1*%
X176967500Y-84187500D03*
%TD*%
D11*
%TO.P,D14,2,A*%
%TO.N,Net-(D14-A)*%
X187127500Y-79937500D03*
D10*
%TO.P,D14,1,K*%
%TO.N,COL 1*%
X176967500Y-79937500D03*
%TD*%
D11*
%TO.P,D9,2,A*%
%TO.N,Net-(D9-A)*%
X187127500Y-58687500D03*
D10*
%TO.P,D9,1,K*%
%TO.N,COL 1*%
X176967500Y-58687500D03*
%TD*%
D11*
%TO.P,D10,2,A*%
%TO.N,Net-(D10-A)*%
X187127500Y-62937500D03*
D10*
%TO.P,D10,1,K*%
%TO.N,COL 1*%
X176967500Y-62937500D03*
%TD*%
D11*
%TO.P,D11,2,A*%
%TO.N,Net-(D11-A)*%
X187127500Y-67187500D03*
D10*
%TO.P,D11,1,K*%
%TO.N,COL 1*%
X176967500Y-67187500D03*
%TD*%
D11*
%TO.P,D16,2,A*%
%TO.N,Net-(D16-A)*%
X187127500Y-88437500D03*
D10*
%TO.P,D16,1,K*%
%TO.N,COL 1*%
X176967500Y-88437500D03*
%TD*%
D11*
%TO.P,D18,2,A*%
%TO.N,Net-(D18-A)*%
X201037500Y-28937500D03*
D10*
%TO.P,D18,1,K*%
%TO.N,COL 1*%
X190877500Y-28937500D03*
%TD*%
D11*
%TO.P,D24,2,A*%
%TO.N,Net-(D24-A)*%
X201037500Y-54437500D03*
D10*
%TO.P,D24,1,K*%
%TO.N,COL 1*%
X190877500Y-54437500D03*
%TD*%
D11*
%TO.P,D23,2,A*%
%TO.N,Net-(D23-A)*%
X201037500Y-50187500D03*
D10*
%TO.P,D23,1,K*%
%TO.N,COL 1*%
X190877500Y-50187500D03*
%TD*%
D11*
%TO.P,D26,2,A*%
%TO.N,Net-(D26-A)*%
X201037500Y-62937500D03*
D10*
%TO.P,D26,1,K*%
%TO.N,COL 1*%
X190877500Y-62937500D03*
%TD*%
D11*
%TO.P,D21,2,A*%
%TO.N,Net-(D21-A)*%
X201037500Y-41687500D03*
D10*
%TO.P,D21,1,K*%
%TO.N,COL 1*%
X190877500Y-41687500D03*
%TD*%
D11*
%TO.P,D22,2,A*%
%TO.N,Net-(D22-A)*%
X201037500Y-45937500D03*
D10*
%TO.P,D22,1,K*%
%TO.N,COL 1*%
X190877500Y-45937500D03*
%TD*%
D11*
%TO.P,D27,2,A*%
%TO.N,Net-(D27-A)*%
X201037500Y-67187500D03*
D10*
%TO.P,D27,1,K*%
%TO.N,COL 1*%
X190877500Y-67187500D03*
%TD*%
D11*
%TO.P,D28,2,A*%
%TO.N,Net-(D28-A)*%
X201037500Y-71437500D03*
D10*
%TO.P,D28,1,K*%
%TO.N,COL 1*%
X190877500Y-71437500D03*
%TD*%
D11*
%TO.P,D20,2,A*%
%TO.N,Net-(D20-A)*%
X201037500Y-37437500D03*
D10*
%TO.P,D20,1,K*%
%TO.N,COL 1*%
X190877500Y-37437500D03*
%TD*%
D11*
%TO.P,D25,2,A*%
%TO.N,Net-(D25-A)*%
X201037500Y-58687500D03*
D10*
%TO.P,D25,1,K*%
%TO.N,COL 1*%
X190877500Y-58687500D03*
%TD*%
D11*
%TO.P,D29,2,A*%
%TO.N,Net-(D29-A)*%
X201037500Y-75687500D03*
D10*
%TO.P,D29,1,K*%
%TO.N,COL 1*%
X190877500Y-75687500D03*
%TD*%
D11*
%TO.P,SW61,1,1*%
%TO.N,COL 1*%
X167060000Y-102076200D03*
%TO.P,SW61,2,2*%
%TO.N,Net-(D61-A)*%
X160710000Y-104616200D03*
%TD*%
%TO.P,SW63,1,1*%
%TO.N,COL 1*%
X167060000Y-140176200D03*
%TO.P,SW63,2,2*%
%TO.N,Net-(D63-A)*%
X160710000Y-142716200D03*
%TD*%
%TO.P,SW62,1,1*%
%TO.N,COL 1*%
X167060000Y-121126200D03*
%TO.P,SW62,2,2*%
%TO.N,Net-(D62-A)*%
X160710000Y-123666200D03*
%TD*%
%TO.P,SW64,1,1*%
%TO.N,COL 1*%
X167060000Y-159226200D03*
%TO.P,SW64,2,2*%
%TO.N,Net-(D64-A)*%
X160710000Y-161766200D03*
%TD*%
%TO.P,SW48,2,2*%
%TO.N,Net-(D48-A)*%
X122713800Y-161766200D03*
%TO.P,SW48,1,1*%
%TO.N,COL 5*%
X129063800Y-159226200D03*
%TD*%
%TO.P,SW47,2,2*%
%TO.N,Net-(D47-A)*%
X122713800Y-142716200D03*
%TO.P,SW47,1,1*%
%TO.N,COL 5*%
X129063800Y-140176200D03*
%TD*%
%TO.P,SW46,2,2*%
%TO.N,Net-(D46-A)*%
X122713800Y-123666200D03*
%TO.P,SW46,1,1*%
%TO.N,COL 5*%
X129063800Y-121126200D03*
%TD*%
%TO.P,SW45,2,2*%
%TO.N,Net-(D45-A)*%
X122713800Y-104616200D03*
%TO.P,SW45,1,1*%
%TO.N,COL 5*%
X129063800Y-102076200D03*
%TD*%
%TO.P,SW43,2,2*%
%TO.N,Net-(D43-A)*%
X122713800Y-66516200D03*
%TO.P,SW43,1,1*%
%TO.N,COL 6*%
X129063800Y-63976200D03*
%TD*%
%TO.P,SW39,2,2*%
%TO.N,Net-(D39-A)*%
X103663800Y-142716200D03*
%TO.P,SW39,1,1*%
%TO.N,COL 7*%
X110013800Y-140176200D03*
%TD*%
%TO.P,SW38,2,2*%
%TO.N,Net-(D38-A)*%
X103663800Y-123666200D03*
%TO.P,SW38,1,1*%
%TO.N,COL 7*%
X110013800Y-121126200D03*
%TD*%
%TO.P,SW37,2,2*%
%TO.N,Net-(D37-A)*%
X103663800Y-104616200D03*
%TO.P,SW37,1,1*%
%TO.N,COL 7*%
X110013800Y-102076200D03*
%TD*%
%TO.P,SW35,2,2*%
%TO.N,Net-(D35-A)*%
X103663800Y-66516200D03*
%TO.P,SW35,1,1*%
%TO.N,COL 8*%
X110013800Y-63976200D03*
%TD*%
%TO.P,SW32,2,2*%
%TO.N,Net-(D32-A)*%
X84613800Y-161766200D03*
%TO.P,SW32,1,1*%
%TO.N,COL 1*%
X90963800Y-159226200D03*
%TD*%
%TO.P,SW41,2,2*%
%TO.N,Net-(D41-A)*%
X122713800Y-28416200D03*
%TO.P,SW41,1,1*%
%TO.N,COL 6*%
X129063800Y-25876200D03*
%TD*%
%TO.P,SW44,2,2*%
%TO.N,Net-(D44-A)*%
X122713800Y-85566200D03*
%TO.P,SW44,1,1*%
%TO.N,COL 6*%
X129063800Y-83026200D03*
%TD*%
%TO.P,SW42,2,2*%
%TO.N,Net-(D42-A)*%
X122713800Y-47466200D03*
%TO.P,SW42,1,1*%
%TO.N,COL 6*%
X129063800Y-44926200D03*
%TD*%
%TO.P,SW40,2,2*%
%TO.N,Net-(D40-A)*%
X103663800Y-161766200D03*
%TO.P,SW40,1,1*%
%TO.N,COL 7*%
X110013800Y-159226200D03*
%TD*%
%TO.P,SW34,2,2*%
%TO.N,Net-(D34-A)*%
X103663800Y-47466200D03*
%TO.P,SW34,1,1*%
%TO.N,COL 8*%
X110013800Y-44926200D03*
%TD*%
%TO.P,SW30,2,2*%
%TO.N,Net-(D30-A)*%
X84613800Y-123666200D03*
%TO.P,SW30,1,1*%
%TO.N,COL 3*%
X90963800Y-121126200D03*
%TD*%
%TO.P,SW36,2,2*%
%TO.N,Net-(D36-A)*%
X103663800Y-85566200D03*
%TO.P,SW36,1,1*%
%TO.N,COL 8*%
X110013800Y-83026200D03*
%TD*%
%TO.P,SW33,2,2*%
%TO.N,Net-(D33-A)*%
X103663800Y-28416200D03*
%TO.P,SW33,1,1*%
%TO.N,COL 8*%
X110013800Y-25876200D03*
%TD*%
%TO.P,SW31,2,2*%
%TO.N,Net-(D31-A)*%
X84613800Y-142716200D03*
%TO.P,SW31,1,1*%
%TO.N,COL 2*%
X90963800Y-140176200D03*
%TD*%
%TO.P,SW29,2,2*%
%TO.N,Net-(D29-A)*%
X84613800Y-104616200D03*
%TO.P,SW29,1,1*%
%TO.N,COL 4*%
X90963800Y-102076200D03*
%TD*%
%TO.P,SW26,2,2*%
%TO.N,Net-(D26-A)*%
X84613800Y-47466200D03*
%TO.P,SW26,1,1*%
%TO.N,COL 7*%
X90963800Y-44926200D03*
%TD*%
%TO.P,SW25,2,2*%
%TO.N,Net-(D25-A)*%
X84613800Y-28416200D03*
%TO.P,SW25,1,1*%
%TO.N,COL 8*%
X90963800Y-25876200D03*
%TD*%
%TO.P,SW28,2,2*%
%TO.N,Net-(D28-A)*%
X84613800Y-85566200D03*
%TO.P,SW28,1,1*%
%TO.N,COL 5*%
X90963800Y-83026200D03*
%TD*%
%TO.P,SW27,2,2*%
%TO.N,Net-(D27-A)*%
X84613800Y-66516200D03*
%TO.P,SW27,1,1*%
%TO.N,COL 6*%
X90963800Y-63976200D03*
%TD*%
%TO.P,SW22,2,2*%
%TO.N,Net-(D22-A)*%
X65563800Y-123666200D03*
%TO.P,SW22,1,1*%
%TO.N,COL 3*%
X71913800Y-121126200D03*
%TD*%
%TO.P,SW19,2,2*%
%TO.N,Net-(D19-A)*%
X65563800Y-66516200D03*
%TO.P,SW19,1,1*%
%TO.N,COL 6*%
X71913800Y-63976200D03*
%TD*%
%TO.P,SW24,2,2*%
%TO.N,Net-(D24-A)*%
X65563800Y-161766200D03*
%TO.P,SW24,1,1*%
%TO.N,COL 1*%
X71913800Y-159226200D03*
%TD*%
%TO.P,SW16,2,2*%
%TO.N,Net-(D16-A)*%
X46513800Y-161766200D03*
%TO.P,SW16,1,1*%
%TO.N,COL 1*%
X52863800Y-159226200D03*
%TD*%
%TO.P,SW21,2,2*%
%TO.N,Net-(D21-A)*%
X65563800Y-104616200D03*
%TO.P,SW21,1,1*%
%TO.N,COL 4*%
X71913800Y-102076200D03*
%TD*%
%TO.P,SW18,2,2*%
%TO.N,Net-(D18-A)*%
X65563800Y-47681200D03*
%TO.P,SW18,1,1*%
%TO.N,COL 7*%
X71913800Y-45141200D03*
%TD*%
%TO.P,SW17,2,2*%
%TO.N,Net-(D17-A)*%
X65563800Y-28416200D03*
%TO.P,SW17,1,1*%
%TO.N,COL 8*%
X71913800Y-25876200D03*
%TD*%
%TO.P,SW23,2,2*%
%TO.N,Net-(D23-A)*%
X65563800Y-142716200D03*
%TO.P,SW23,1,1*%
%TO.N,COL 2*%
X71913800Y-140176200D03*
%TD*%
%TO.P,SW20,2,2*%
%TO.N,Net-(D20-A)*%
X65563800Y-85566200D03*
%TO.P,SW20,1,1*%
%TO.N,COL 5*%
X71913800Y-83026200D03*
%TD*%
%TO.P,SW15,2,2*%
%TO.N,Net-(D15-A)*%
X46513800Y-142716200D03*
%TO.P,SW15,1,1*%
%TO.N,COL 2*%
X52863800Y-140176200D03*
%TD*%
%TO.P,SW14,2,2*%
%TO.N,Net-(D14-A)*%
X46513800Y-123666200D03*
%TO.P,SW14,1,1*%
%TO.N,COL 3*%
X52863800Y-121126200D03*
%TD*%
%TO.P,SW12,2,2*%
%TO.N,Net-(D12-A)*%
X46513800Y-85566200D03*
%TO.P,SW12,1,1*%
%TO.N,COL 5*%
X52863800Y-83026200D03*
%TD*%
%TO.P,SW11,2,2*%
%TO.N,Net-(D11-A)*%
X46513800Y-66516200D03*
%TO.P,SW11,1,1*%
%TO.N,COL 6*%
X52863800Y-63976200D03*
%TD*%
%TO.P,SW9,2,2*%
%TO.N,Net-(D9-A)*%
X46513800Y-28416200D03*
%TO.P,SW9,1,1*%
%TO.N,COL 8*%
X52863800Y-25876200D03*
%TD*%
%TO.P,SW8,2,2*%
%TO.N,Net-(D8-A)*%
X27463800Y-161766200D03*
%TO.P,SW8,1,1*%
%TO.N,COL 1*%
X33813800Y-159226200D03*
%TD*%
%TO.P,SW4,2,2*%
%TO.N,Net-(D4-A)*%
X27463800Y-85566200D03*
%TO.P,SW4,1,1*%
%TO.N,COL 5*%
X33813800Y-83026200D03*
%TD*%
%TO.P,SW7,2,2*%
%TO.N,Net-(D7-A)*%
X27463800Y-142716200D03*
%TO.P,SW7,1,1*%
%TO.N,COL 2*%
X33813800Y-140176200D03*
%TD*%
%TO.P,SW6,2,2*%
%TO.N,Net-(D6-A)*%
X27463800Y-123666200D03*
%TO.P,SW6,1,1*%
%TO.N,COL 3*%
X33813800Y-121126200D03*
%TD*%
%TO.P,SW13,2,2*%
%TO.N,Net-(D13-A)*%
X46513800Y-104616200D03*
%TO.P,SW13,1,1*%
%TO.N,COL 4*%
X52863800Y-102076200D03*
%TD*%
%TO.P,SW2,2,2*%
%TO.N,Net-(D2-A)*%
X27463800Y-47466200D03*
%TO.P,SW2,1,1*%
%TO.N,COL 7*%
X33813800Y-44926200D03*
%TD*%
%TO.P,SW10,2,2*%
%TO.N,Net-(D10-A)*%
X46513800Y-47466200D03*
%TO.P,SW10,1,1*%
%TO.N,COL 7*%
X52863800Y-44926200D03*
%TD*%
%TO.P,SW5,2,2*%
%TO.N,Net-(D5-A)*%
X27463800Y-104616200D03*
%TO.P,SW5,1,1*%
%TO.N,COL 4*%
X33813800Y-102076200D03*
%TD*%
%TO.P,SW3,2,2*%
%TO.N,Net-(D3-A)*%
X27463800Y-66516200D03*
%TO.P,SW3,1,1*%
%TO.N,COL 6*%
X33813800Y-63976200D03*
%TD*%
%TO.P,SW1,2,2*%
%TO.N,Net-(D1-A)*%
X27463800Y-28416200D03*
%TO.P,SW1,1,1*%
%TO.N,COL 8*%
X33813800Y-25876200D03*
%TD*%
%TO.P,SW56,2,2*%
%TO.N,Net-(D56-A)*%
X141763800Y-161766200D03*
%TO.P,SW56,1,1*%
%TO.N,COL 3*%
X148113800Y-159226200D03*
%TD*%
%TO.P,SW51,2,2*%
%TO.N,Net-(D51-A)*%
X141763800Y-66516200D03*
%TO.P,SW51,1,1*%
%TO.N,COL 4*%
X148113800Y-63976200D03*
%TD*%
%TO.P,SW53,2,2*%
%TO.N,Net-(D53-A)*%
X141763800Y-104616200D03*
%TO.P,SW53,1,1*%
%TO.N,COL 3*%
X148113800Y-102076200D03*
%TD*%
%TO.P,SW54,2,2*%
%TO.N,Net-(D54-A)*%
X141763800Y-123666200D03*
%TO.P,SW54,1,1*%
%TO.N,COL 3*%
X148113800Y-121126200D03*
%TD*%
%TO.P,SW52,2,2*%
%TO.N,Net-(D52-A)*%
X141763800Y-85566200D03*
%TO.P,SW52,1,1*%
%TO.N,COL 4*%
X148113800Y-83026200D03*
%TD*%
%TO.P,SW49,2,2*%
%TO.N,Net-(D49-A)*%
X141763800Y-28416200D03*
%TO.P,SW49,1,1*%
%TO.N,COL 4*%
X148113800Y-25876200D03*
%TD*%
%TO.P,SW50,2,2*%
%TO.N,Net-(D50-A)*%
X141763800Y-47681200D03*
%TO.P,SW50,1,1*%
%TO.N,COL 4*%
X148113800Y-45141200D03*
%TD*%
%TO.P,SW55,2,2*%
%TO.N,Net-(D55-A)*%
X141763800Y-142716200D03*
%TO.P,SW55,1,1*%
%TO.N,COL 3*%
X148113800Y-140176200D03*
%TD*%
D12*
%TO.P,U1,1,GND*%
%TO.N,GND*%
X211613800Y-59531200D03*
D13*
%TO.P,U1,2,VCC*%
%TO.N,Net-(A1-+5V)*%
X214153800Y-59531200D03*
%TO.P,U1,3,SCL*%
%TO.N,SCL*%
X216693800Y-59531200D03*
%TO.P,U1,4,SDA*%
%TO.N,SDA*%
X219233800Y-59531200D03*
%TD*%
D14*
%TO.P,A1,1,TX1*%
%TO.N,COL 8*%
X210978800Y-138112500D03*
D15*
%TO.P,A1,2,RX1*%
%TO.N,COL 7*%
X210978800Y-140652500D03*
%TO.P,A1,3,~{RESET}*%
%TO.N,unconnected-(A1-~{RESET}-Pad3)*%
X210978800Y-143192500D03*
%TO.P,A1,4,GND*%
%TO.N,GND*%
X210978800Y-145732500D03*
%TO.P,A1,5,D2*%
%TO.N,COL 1*%
X210978800Y-148272500D03*
%TO.P,A1,6,D3*%
X210978800Y-150812500D03*
%TO.P,A1,7,D4*%
X210978800Y-153352500D03*
%TO.P,A1,8,D5*%
X210978800Y-155892500D03*
%TO.P,A1,9,D6*%
X210978800Y-158432500D03*
%TO.P,A1,10,D7*%
X210978800Y-160972500D03*
%TO.P,A1,11,D8*%
X210978800Y-163512500D03*
%TO.P,A1,12,D9*%
X210978800Y-166052500D03*
%TO.P,A1,13,D10*%
X210978800Y-168592500D03*
%TO.P,A1,14,MOSI*%
%TO.N,COL 2*%
X210978800Y-171132500D03*
%TO.P,A1,15,MISO*%
%TO.N,COL 3*%
X210978800Y-173672500D03*
%TO.P,A1,16,SCK*%
%TO.N,COL 4*%
X226218800Y-173672500D03*
%TO.P,A1,17,3V3*%
%TO.N,unconnected-(A1-3V3-Pad17)*%
X226218800Y-171132500D03*
%TO.P,A1,18,AREF*%
%TO.N,unconnected-(A1-AREF-Pad18)*%
X226218800Y-168592500D03*
%TO.P,A1,19,A0*%
%TO.N,COL 5*%
X226218800Y-166052500D03*
%TO.P,A1,20,A1*%
%TO.N,COL 6*%
X226218800Y-163512500D03*
%TO.P,A1,21,A2*%
%TO.N,unconnected-(A1-A2-Pad21)*%
X226218800Y-160972500D03*
%TO.P,A1,22,A3*%
%TO.N,unconnected-(A1-A3-Pad22)*%
X226218800Y-158432500D03*
%TO.P,A1,23,SDA/A4*%
%TO.N,SDA*%
X226218800Y-155892500D03*
%TO.P,A1,24,SCL/A5*%
%TO.N,SCL*%
X226218800Y-153352500D03*
%TO.P,A1,25,A6*%
%TO.N,unconnected-(A1-A6-Pad25)*%
X226218800Y-150812500D03*
%TO.P,A1,26,A7*%
%TO.N,unconnected-(A1-A7-Pad26)*%
X226218800Y-148272500D03*
%TO.P,A1,27,+5V*%
%TO.N,Net-(A1-+5V)*%
X226218800Y-145732500D03*
%TO.P,A1,28,~{RESET}*%
%TO.N,unconnected-(A1-~{RESET}-Pad28)*%
X226218800Y-143192500D03*
%TO.P,A1,29,GND*%
%TO.N,GND*%
X226218800Y-140652500D03*
%TO.P,A1,30,VIN*%
%TO.N,unconnected-(A1-VIN-Pad30)*%
X226218800Y-138112500D03*
%TD*%
D16*
%TO.N,Net-(D62-A)*%
X193921300Y-124303800D03*
%TO.N,Net-(D61-A)*%
X198860500Y-110514500D03*
%TO.N,Net-(D60-A)*%
X195210600Y-87054200D03*
%TO.N,Net-(D59-A)*%
X168651600Y-141048700D03*
%TO.N,Net-(D58-A)*%
X158895500Y-133661700D03*
%TO.N,Net-(D57-A)*%
X199638400Y-28032000D03*
%TO.N,Net-(D56-A)*%
X146538100Y-129928100D03*
%TO.N,Net-(D55-A)*%
X143184400Y-128024500D03*
%TO.N,Net-(D52-A)*%
X195574500Y-88807900D03*
X199460500Y-112368500D03*
%TO.N,Net-(D51-A)*%
X196817800Y-68664400D03*
%TO.N,Net-(D50-A)*%
X197567100Y-46656000D03*
%TO.N,Net-(D49-A)*%
X143550300Y-97219000D03*
%TO.N,Net-(D46-A)*%
X181556900Y-121316800D03*
%TO.N,Net-(D45-A)*%
X172230100Y-110340000D03*
%TO.N,Net-(D44-A)*%
X125623500Y-141689400D03*
%TO.N,Net-(D43-A)*%
X168088200Y-65876900D03*
%TO.N,Net-(D42-A)*%
X129647200Y-136914700D03*
%TO.N,Net-(D41-A)*%
X123154800Y-132919400D03*
%TO.N,Net-(D40-A)*%
X105505900Y-135617800D03*
%TO.N,Net-(D39-A)*%
X104708900Y-135137500D03*
%TO.N,Net-(D37-A)*%
X105700400Y-112915800D03*
%TO.N,Net-(D36-A)*%
X104707300Y-112713500D03*
%TO.N,Net-(D35-A)*%
X189269200Y-69196400D03*
%TO.N,Net-(D34-A)*%
X105505900Y-97629500D03*
%TO.N,Net-(D33-A)*%
X184755200Y-34372500D03*
%TO.N,Net-(D32-A)*%
X103877900Y-96808500D03*
%TO.N,Net-(D31-A)*%
X105358500Y-85644200D03*
%TO.N,Net-(D30-A)*%
X86782100Y-91782000D03*
%TO.N,Net-(D29-A)*%
X86782100Y-76994900D03*
%TO.N,Net-(D26-A)*%
X87319900Y-62106800D03*
%TO.N,Net-(D25-A)*%
X95745500Y-60497300D03*
%TO.N,Net-(D24-A)*%
X78954900Y-59308100D03*
%TO.N,Net-(D23-A)*%
X83704600Y-56822200D03*
%TO.N,Net-(D22-A)*%
X119023800Y-55469100D03*
X119023800Y-111248900D03*
X67015000Y-113496000D03*
%TO.N,Net-(D21-A)*%
X198475600Y-38981500D03*
X80806500Y-41621300D03*
%TO.N,Net-(D20-A)*%
X68855300Y-55227800D03*
%TO.N,Net-(D19-A)*%
X68855300Y-37969800D03*
%TO.N,Net-(D18-A)*%
X65867500Y-35725700D03*
%TO.N,Net-(D16-A)*%
X47183800Y-100439300D03*
%TO.N,Net-(D15-A)*%
X185086100Y-136706500D03*
%TO.N,Net-(D14-A)*%
X184435900Y-115979400D03*
%TO.N,Net-(D13-A)*%
X48653400Y-91782000D03*
%TO.N,Net-(D12-A)*%
X47940700Y-82171400D03*
%TO.N,Net-(D10-A)*%
X48737200Y-61459400D03*
%TO.N,Net-(D9-A)*%
X59891900Y-57050700D03*
%TO.N,Net-(D8-A)*%
X44952900Y-56758500D03*
%TO.N,Net-(D7-A)*%
X180598600Y-57605100D03*
X39198100Y-57146900D03*
%TO.N,Net-(D6-A)*%
X180199300Y-110558200D03*
%TO.N,Net-(D5-A)*%
X37591500Y-58154000D03*
%TO.N,Net-(D4-A)*%
X27026100Y-44569100D03*
%TO.N,Net-(D3-A)*%
X39923000Y-37794900D03*
%TO.N,Net-(D2-A)*%
X182392400Y-41650100D03*
%TO.N,COL 5*%
X92757700Y-97629500D03*
%TO.N,COL 4*%
X164399100Y-172402500D03*
X149253600Y-100281400D03*
%TO.N,COL 6*%
X221055100Y-85620300D03*
%TO.N,COL 2*%
X197749900Y-83167800D03*
X199980100Y-135369800D03*
%TO.N,COL 7*%
X98203000Y-99838300D03*
%TO.N,COL 8*%
X201692700Y-82384100D03*
%TO.N,COL 3*%
X149525900Y-171324500D03*
X146538100Y-115422600D03*
%TD*%
D17*
%TO.N,Net-(D64-A)*%
X200558200Y-165414300D02*
X202028800Y-163943700D01*
X175811100Y-165414300D02*
X200558200Y-165414300D01*
X172324900Y-161928100D02*
X175811100Y-165414300D01*
X166085900Y-161928100D02*
X172324900Y-161928100D01*
X165825700Y-161667900D02*
X166085900Y-161928100D01*
X160808300Y-161667900D02*
X165825700Y-161667900D01*
X160710000Y-161766200D02*
X160808300Y-161667900D01*
%TO.N,Net-(D63-A)*%
X199903700Y-157568600D02*
X202028800Y-159693700D01*
X173220300Y-157568600D02*
X199903700Y-157568600D01*
X161502200Y-145850500D02*
X173220300Y-157568600D01*
X161502200Y-143508400D02*
X161502200Y-145850500D01*
X160710000Y-142716200D02*
X161502200Y-143508400D01*
%TO.N,Net-(D62-A)*%
X193295000Y-123677500D02*
X193921300Y-124303800D01*
X165869900Y-123677500D02*
X193295000Y-123677500D01*
X165823300Y-123630900D02*
X165869900Y-123677500D01*
X160745300Y-123630900D02*
X165823300Y-123630900D01*
X160710000Y-123666200D02*
X160745300Y-123630900D01*
%TO.N,Net-(D61-A)*%
X160798200Y-104528000D02*
X160710000Y-104616200D01*
X168954200Y-104528000D02*
X160798200Y-104528000D01*
X171717200Y-107291000D02*
X168954200Y-104528000D01*
X195637000Y-107291000D02*
X171717200Y-107291000D01*
X198860500Y-110514500D02*
X195637000Y-107291000D01*
%TO.N,Net-(D60-A)*%
X194695200Y-86538800D02*
X195210600Y-87054200D01*
X166896500Y-86538800D02*
X194695200Y-86538800D01*
X165831200Y-85473500D02*
X166896500Y-86538800D01*
X160802700Y-85473500D02*
X165831200Y-85473500D01*
X160710000Y-85566200D02*
X160802700Y-85473500D01*
%TO.N,Net-(D59-A)*%
X200447700Y-141112600D02*
X202028800Y-142693700D01*
X168715500Y-141112600D02*
X200447700Y-141112600D01*
X168651600Y-141048700D02*
X168715500Y-141112600D01*
%TO.N,Net-(D58-A)*%
X174916600Y-133661700D02*
X158895500Y-133661700D01*
X176857800Y-135602900D02*
X174916600Y-133661700D01*
X193719900Y-135602900D02*
X176857800Y-135602900D01*
X194569000Y-134753800D02*
X193719900Y-135602900D01*
X200216800Y-134753800D02*
X194569000Y-134753800D01*
X202028800Y-136565800D02*
X200216800Y-134753800D01*
X202028800Y-138443700D02*
X202028800Y-136565800D01*
%TO.N,Net-(D57-A)*%
X161637300Y-27488900D02*
X160710000Y-28416200D01*
X199095300Y-27488900D02*
X161637300Y-27488900D01*
X199638400Y-28032000D02*
X199095300Y-27488900D01*
%TO.N,Net-(D56-A)*%
X169254000Y-129928100D02*
X170902100Y-128280000D01*
X146538100Y-129928100D02*
X169254000Y-129928100D01*
X170902100Y-128280000D02*
X171068400Y-128113700D01*
X170902100Y-128280000D02*
X171068400Y-128113700D01*
X200198800Y-128113700D02*
X171068400Y-128113700D01*
X202028800Y-129943700D02*
X200198800Y-128113700D01*
%TO.N,Net-(D55-A)*%
X143917800Y-128757900D02*
X143184400Y-128024500D01*
X169030700Y-128757900D02*
X143917800Y-128757900D01*
X173519500Y-124269100D02*
X169030700Y-128757900D01*
X192980800Y-124269100D02*
X173519500Y-124269100D01*
X194405400Y-125693700D02*
X192980800Y-124269100D01*
X202028800Y-125693700D02*
X194405400Y-125693700D01*
%TO.N,Net-(D54-A)*%
X200196700Y-123275800D02*
X202028800Y-121443700D01*
X166036200Y-123275800D02*
X200196700Y-123275800D01*
X164981900Y-122221500D02*
X166036200Y-123275800D01*
X151846100Y-122221500D02*
X164981900Y-122221500D01*
X151108000Y-122959600D02*
X151846100Y-122221500D01*
X142470400Y-122959600D02*
X151108000Y-122959600D01*
X141763800Y-123666200D02*
X142470400Y-122959600D01*
%TO.N,Net-(D53-A)*%
X141820100Y-104559900D02*
X141763800Y-104616200D01*
X151752200Y-104559900D02*
X141820100Y-104559900D01*
X156930600Y-109738300D02*
X151752200Y-104559900D01*
X172479300Y-109738300D02*
X156930600Y-109738300D01*
X172862800Y-110121800D02*
X172479300Y-109738300D01*
X179784900Y-110121800D02*
X172862800Y-110121800D01*
X179950200Y-109956500D02*
X179784900Y-110121800D01*
X186751100Y-109956500D02*
X179950200Y-109956500D01*
X187318100Y-110523500D02*
X186751100Y-109956500D01*
X195358600Y-110523500D02*
X187318100Y-110523500D01*
X202028800Y-117193700D02*
X195358600Y-110523500D01*
%TO.N,Net-(D52-A)*%
X195812400Y-88570000D02*
X195574500Y-88807900D01*
X195812400Y-86752400D02*
X195812400Y-88570000D01*
X195138800Y-86078800D02*
X195812400Y-86752400D01*
X167040000Y-86078800D02*
X195138800Y-86078800D01*
X165059400Y-84098200D02*
X167040000Y-86078800D01*
X159908400Y-84098200D02*
X165059400Y-84098200D01*
X158740500Y-85266100D02*
X159908400Y-84098200D01*
X142063900Y-85266100D02*
X158740500Y-85266100D01*
X141763800Y-85566200D02*
X142063900Y-85266100D01*
X200035700Y-112943700D02*
X199460500Y-112368500D01*
X202028800Y-112943700D02*
X200035700Y-112943700D01*
%TO.N,Net-(D51-A)*%
X142277100Y-66002900D02*
X141763800Y-66516200D01*
X158883300Y-66002900D02*
X142277100Y-66002900D01*
X159785800Y-65100400D02*
X158883300Y-66002900D01*
X161301200Y-65100400D02*
X159785800Y-65100400D01*
X162705200Y-66504400D02*
X161301200Y-65100400D01*
X162871500Y-66338100D02*
X162705200Y-66504400D01*
X162871500Y-66338100D02*
X162705200Y-66504400D01*
X188494000Y-68994800D02*
X188729400Y-68759400D01*
X174720100Y-68994800D02*
X188494000Y-68994800D01*
X172229700Y-66504400D02*
X174720100Y-68994800D01*
X163037800Y-66504400D02*
X172229700Y-66504400D01*
X162871500Y-66338100D02*
X163037800Y-66504400D01*
X188729400Y-68759400D02*
X188894200Y-68594600D01*
X188729400Y-68759400D02*
X188894200Y-68594600D01*
X196748000Y-68594600D02*
X196817800Y-68664400D01*
X188894200Y-68594600D02*
X196748000Y-68594600D01*
%TO.N,Net-(D50-A)*%
X178379100Y-43893500D02*
X178614500Y-43658100D01*
X175556000Y-43893500D02*
X178379100Y-43893500D01*
X175180700Y-43518200D02*
X175556000Y-43893500D01*
X145926800Y-43518200D02*
X175180700Y-43518200D01*
X141763800Y-47681200D02*
X145926800Y-43518200D01*
X194429300Y-43518200D02*
X197567100Y-46656000D01*
X178754400Y-43518200D02*
X194429300Y-43518200D01*
X178614500Y-43658100D02*
X178754400Y-43518200D01*
X178614500Y-43658100D02*
X178754400Y-43518200D01*
%TO.N,Net-(D49-A)*%
X199054100Y-97219000D02*
X143550300Y-97219000D01*
X202028800Y-100193700D02*
X199054100Y-97219000D01*
%TO.N,Net-(D48-A)*%
X185701500Y-161526400D02*
X188118800Y-163943700D01*
X166252200Y-161526400D02*
X185701500Y-161526400D01*
X165048000Y-160322200D02*
X166252200Y-161526400D01*
X151845500Y-160322200D02*
X165048000Y-160322200D01*
X151092300Y-161075400D02*
X151845500Y-160322200D01*
X146830400Y-161075400D02*
X151092300Y-161075400D01*
X146035700Y-160280700D02*
X146830400Y-161075400D01*
X132269000Y-160280700D02*
X146035700Y-160280700D01*
X131891800Y-160657900D02*
X132269000Y-160280700D01*
X123822100Y-160657900D02*
X131891800Y-160657900D01*
X122713800Y-161766200D02*
X123822100Y-160657900D01*
%TO.N,Net-(D47-A)*%
X123494400Y-143496800D02*
X122713800Y-142716200D01*
X123494400Y-145845200D02*
X123494400Y-143496800D01*
X135016100Y-157366900D02*
X123494400Y-145845200D01*
X170522900Y-157366900D02*
X135016100Y-157366900D01*
X171145100Y-157989100D02*
X170522900Y-157366900D01*
X186414200Y-157989100D02*
X171145100Y-157989100D01*
X188118800Y-159693700D02*
X186414200Y-157989100D01*
%TO.N,Net-(D46-A)*%
X123822100Y-122557900D02*
X122713800Y-123666200D01*
X131891800Y-122557900D02*
X123822100Y-122557900D01*
X132197700Y-122252000D02*
X131891800Y-122557900D01*
X146807900Y-122252000D02*
X132197700Y-122252000D01*
X147113800Y-122557900D02*
X146807900Y-122252000D01*
X149989100Y-122557900D02*
X147113800Y-122557900D01*
X150727200Y-121819800D02*
X149989100Y-122557900D01*
X165348400Y-121819800D02*
X150727200Y-121819800D01*
X166402700Y-122874100D02*
X165348400Y-121819800D01*
X179999600Y-122874100D02*
X166402700Y-122874100D01*
X181556900Y-121316800D02*
X179999600Y-122874100D01*
%TO.N,Net-(D45-A)*%
X122783100Y-104546900D02*
X122713800Y-104616200D01*
X132966000Y-104546900D02*
X122783100Y-104546900D01*
X138759100Y-110340000D02*
X132966000Y-104546900D01*
X172230100Y-110340000D02*
X138759100Y-110340000D01*
%TO.N,Net-(D44-A)*%
X129712700Y-141689400D02*
X125623500Y-141689400D01*
X130126100Y-141276000D02*
X129712700Y-141689400D01*
X146928500Y-141276000D02*
X130126100Y-141276000D01*
X147270200Y-141617700D02*
X146928500Y-141276000D01*
X148905300Y-141617700D02*
X147270200Y-141617700D01*
X149210000Y-141313000D02*
X148905300Y-141617700D01*
X163580100Y-141313000D02*
X149210000Y-141313000D01*
X164861500Y-142594400D02*
X163580100Y-141313000D01*
X169063700Y-142594400D02*
X164861500Y-142594400D01*
X172010300Y-145541000D02*
X169063700Y-142594400D01*
X186716100Y-145541000D02*
X172010300Y-145541000D01*
X188118800Y-146943700D02*
X186716100Y-145541000D01*
%TO.N,Net-(D43-A)*%
X123420400Y-65809600D02*
X122713800Y-66516200D01*
X130370000Y-65809600D02*
X123420400Y-65809600D01*
X131076400Y-65103200D02*
X130370000Y-65809600D01*
X142836100Y-65103200D02*
X131076400Y-65103200D01*
X143115600Y-65382700D02*
X142836100Y-65103200D01*
X158735600Y-65382700D02*
X143115600Y-65382700D01*
X159419600Y-64698700D02*
X158735600Y-65382700D01*
X161586500Y-64698700D02*
X159419600Y-64698700D01*
X162764700Y-65876900D02*
X161586500Y-64698700D01*
X168088200Y-65876900D02*
X162764700Y-65876900D01*
%TO.N,Net-(D42-A)*%
X185972500Y-138443700D02*
X188118800Y-138443700D01*
X184443500Y-136914700D02*
X185972500Y-138443700D01*
X129647200Y-136914700D02*
X184443500Y-136914700D01*
%TO.N,Net-(D41-A)*%
X123327800Y-132746400D02*
X123154800Y-132919400D01*
X186671500Y-132746400D02*
X123327800Y-132746400D01*
X188118800Y-134193700D02*
X186671500Y-132746400D01*
%TO.N,Net-(D40-A)*%
X108825100Y-132298600D02*
X105505900Y-135617800D01*
X185763900Y-132298600D02*
X108825100Y-132298600D01*
X188118800Y-129943700D02*
X185763900Y-132298600D01*
%TO.N,Net-(D39-A)*%
X186716200Y-127096300D02*
X188118800Y-125693700D01*
X171307200Y-127096300D02*
X186716200Y-127096300D01*
X169243900Y-129159600D02*
X171307200Y-127096300D01*
X110686800Y-129159600D02*
X169243900Y-129159600D01*
X104708900Y-135137500D02*
X110686800Y-129159600D01*
%TO.N,Net-(D38-A)*%
X186393600Y-119718500D02*
X188118800Y-121443700D01*
X107611500Y-119718500D02*
X186393600Y-119718500D01*
X103663800Y-123666200D02*
X107611500Y-119718500D01*
%TO.N,Net-(D37-A)*%
X107451500Y-114666900D02*
X105700400Y-112915800D01*
X185592000Y-114666900D02*
X107451500Y-114666900D01*
X188118800Y-117193700D02*
X185592000Y-114666900D01*
%TO.N,Net-(D36-A)*%
X187063200Y-111888100D02*
X188118800Y-112943700D01*
X179384800Y-111888100D02*
X187063200Y-111888100D01*
X179384800Y-111888000D02*
X179384800Y-111888100D01*
X179034700Y-111537900D02*
X179384800Y-111888000D01*
X119585700Y-111537900D02*
X179034700Y-111537900D01*
X119273000Y-111850600D02*
X119585700Y-111537900D01*
X105570200Y-111850600D02*
X119273000Y-111850600D01*
X104707300Y-112713500D02*
X105570200Y-111850600D01*
%TO.N,Net-(D35-A)*%
X189069100Y-69396500D02*
X189269200Y-69196400D01*
X171833500Y-69396500D02*
X189069100Y-69396500D01*
X169602200Y-71627800D02*
X171833500Y-69396500D01*
X106404600Y-71627800D02*
X169602200Y-71627800D01*
X104560800Y-69784000D02*
X106404600Y-71627800D01*
X104560800Y-67413200D02*
X104560800Y-69784000D01*
X103663800Y-66516200D02*
X104560800Y-67413200D01*
X189269200Y-69196400D02*
X189194200Y-69271400D01*
X189194200Y-69271400D02*
X189269200Y-69196400D01*
%TO.N,Net-(D34-A)*%
X181495800Y-97820700D02*
X188118800Y-104443700D01*
X105697100Y-97820700D02*
X181495800Y-97820700D01*
X105505900Y-97629500D02*
X105697100Y-97820700D01*
%TO.N,Net-(D33-A)*%
X103737700Y-28342300D02*
X103663800Y-28416200D01*
X113911400Y-28342300D02*
X103737700Y-28342300D01*
X120159200Y-34590100D02*
X113911400Y-28342300D01*
X184537600Y-34590100D02*
X120159200Y-34590100D01*
X184755200Y-34372500D02*
X184537600Y-34590100D01*
%TO.N,Net-(D32-A)*%
X104069100Y-96617300D02*
X103877900Y-96808500D01*
X192857700Y-96617300D02*
X104069100Y-96617300D01*
X201037500Y-88437500D02*
X192857700Y-96617300D01*
%TO.N,Net-(D31-A)*%
X106574800Y-84427900D02*
X105358500Y-85644200D01*
X121506500Y-84427900D02*
X106574800Y-84427900D01*
X124722600Y-81211800D02*
X121506500Y-84427900D01*
X169368100Y-81211800D02*
X124722600Y-81211800D01*
X170413300Y-82257000D02*
X169368100Y-81211800D01*
X199107000Y-82257000D02*
X170413300Y-82257000D01*
X201037500Y-84187500D02*
X199107000Y-82257000D01*
%TO.N,Net-(D30-A)*%
X93238300Y-91782000D02*
X86782100Y-91782000D01*
X106559900Y-78460400D02*
X93238300Y-91782000D01*
X199560400Y-78460400D02*
X106559900Y-78460400D01*
X201037500Y-79937500D02*
X199560400Y-78460400D01*
%TO.N,Net-(D29-A)*%
X202470100Y-74254900D02*
X201037500Y-75687500D01*
X202470100Y-70831200D02*
X202470100Y-74254900D01*
X201674700Y-70035800D02*
X202470100Y-70831200D01*
X200390700Y-70035800D02*
X201674700Y-70035800D01*
X196616300Y-73810200D02*
X200390700Y-70035800D01*
X89966800Y-73810200D02*
X196616300Y-73810200D01*
X86782100Y-76994900D02*
X89966800Y-73810200D01*
%TO.N,Net-(D28-A)*%
X85752100Y-84427900D02*
X84613800Y-85566200D01*
X91544500Y-84427900D02*
X85752100Y-84427900D01*
X101754000Y-74218400D02*
X91544500Y-84427900D01*
X198256600Y-74218400D02*
X101754000Y-74218400D01*
X201037500Y-71437500D02*
X198256600Y-74218400D01*
%TO.N,Net-(D27-A)*%
X169968700Y-72029500D02*
X170204100Y-71794100D01*
X102816800Y-72029500D02*
X169968700Y-72029500D01*
X97255000Y-66467700D02*
X102816800Y-72029500D01*
X84662300Y-66467700D02*
X97255000Y-66467700D01*
X84613800Y-66516200D02*
X84662300Y-66467700D01*
X170204100Y-71794100D02*
X170368900Y-71629300D01*
X170204100Y-71794100D02*
X170368900Y-71629300D01*
X198215800Y-70009200D02*
X201037500Y-67187500D01*
X171989000Y-70009200D02*
X198215800Y-70009200D01*
X170368900Y-71629300D02*
X171989000Y-70009200D01*
%TO.N,Net-(D26-A)*%
X168920600Y-62106800D02*
X87319900Y-62106800D01*
X171160800Y-64347000D02*
X168920600Y-62106800D01*
X199628000Y-64347000D02*
X171160800Y-64347000D01*
X201037500Y-62937500D02*
X199628000Y-64347000D01*
%TO.N,Net-(D25-A)*%
X199148900Y-60576100D02*
X201037500Y-58687500D01*
X95824300Y-60576100D02*
X199148900Y-60576100D01*
X95745500Y-60497300D02*
X95824300Y-60576100D01*
%TO.N,Net-(D24-A)*%
X95407200Y-59308100D02*
X78954900Y-59308100D01*
X96211800Y-60112700D02*
X95407200Y-59308100D01*
X187775200Y-60112700D02*
X96211800Y-60112700D01*
X188752900Y-59135000D02*
X187775200Y-60112700D01*
X188752900Y-58273600D02*
X188752900Y-59135000D01*
X190464000Y-56562500D02*
X188752900Y-58273600D01*
X198912500Y-56562500D02*
X190464000Y-56562500D01*
X201037500Y-54437500D02*
X198912500Y-56562500D01*
%TO.N,Net-(D23-A)*%
X95642700Y-56472600D02*
X95407300Y-56708000D01*
X187136900Y-56472600D02*
X95642700Y-56472600D01*
X188529200Y-55080300D02*
X187136900Y-56472600D01*
X188529200Y-54270500D02*
X188529200Y-55080300D01*
X191209600Y-51590100D02*
X188529200Y-54270500D01*
X199634900Y-51590100D02*
X191209600Y-51590100D01*
X201037500Y-50187500D02*
X199634900Y-51590100D01*
X95293100Y-56822200D02*
X83704600Y-56822200D01*
X95407300Y-56708000D02*
X95293100Y-56822200D01*
X95407300Y-56708000D02*
X95293100Y-56822200D01*
%TO.N,Net-(D22-A)*%
X101971200Y-113496000D02*
X67015000Y-113496000D01*
X104218300Y-111248900D02*
X101971200Y-113496000D01*
X119023800Y-111248900D02*
X104218300Y-111248900D01*
X137234100Y-55469100D02*
X119023800Y-55469100D01*
X142220700Y-50482500D02*
X137234100Y-55469100D01*
X142220700Y-49926400D02*
X142220700Y-50482500D01*
X145574200Y-46572900D02*
X142220700Y-49926400D01*
X149617300Y-46572900D02*
X145574200Y-46572900D01*
X150147900Y-46042300D02*
X149617300Y-46572900D01*
X161817600Y-46042300D02*
X150147900Y-46042300D01*
X163144400Y-47369100D02*
X161817600Y-46042300D01*
X199605900Y-47369100D02*
X163144400Y-47369100D01*
X201037500Y-45937500D02*
X199605900Y-47369100D01*
%TO.N,Net-(D21-A)*%
X83030900Y-39396900D02*
X80806500Y-41621300D01*
X198060200Y-39396900D02*
X83030900Y-39396900D01*
X198475600Y-38981500D02*
X198060200Y-39396900D01*
%TO.N,Net-(D20-A)*%
X198238000Y-40237000D02*
X201037500Y-37437500D01*
X106597000Y-40237000D02*
X198238000Y-40237000D01*
X94062600Y-52771400D02*
X106597000Y-40237000D01*
X72841500Y-52771400D02*
X94062600Y-52771400D01*
X70579600Y-55033300D02*
X72841500Y-52771400D01*
X69049800Y-55033300D02*
X70579600Y-55033300D01*
X68855300Y-55227800D02*
X69049800Y-55033300D01*
%TO.N,Net-(D19-A)*%
X70956600Y-35868500D02*
X68855300Y-37969800D01*
X198356500Y-35868500D02*
X70956600Y-35868500D01*
X201037500Y-33187500D02*
X198356500Y-35868500D01*
%TO.N,Net-(D18-A)*%
X194581500Y-35393500D02*
X201037500Y-28937500D01*
X66199700Y-35393500D02*
X194581500Y-35393500D01*
X65867500Y-35725700D02*
X66199700Y-35393500D01*
%TO.N,Net-(D17-A)*%
X66672100Y-27307900D02*
X65563800Y-28416200D01*
X73812600Y-27307900D02*
X66672100Y-27307900D01*
X74133500Y-26987000D02*
X73812600Y-27307900D01*
X89534600Y-26987000D02*
X74133500Y-26987000D01*
X89911200Y-27363600D02*
X89534600Y-26987000D01*
X91996000Y-27363600D02*
X89911200Y-27363600D01*
X92372600Y-26987000D02*
X91996000Y-27363600D01*
X108584600Y-26987000D02*
X92372600Y-26987000D01*
X108961200Y-27363600D02*
X108584600Y-26987000D01*
X111046000Y-27363600D02*
X108961200Y-27363600D01*
X113947700Y-24461900D02*
X111046000Y-27363600D01*
X167628100Y-24461900D02*
X113947700Y-24461900D01*
X169258100Y-26091900D02*
X167628100Y-24461900D01*
X199633100Y-26091900D02*
X169258100Y-26091900D01*
X201037500Y-24687500D02*
X199633100Y-26091900D01*
%TO.N,Net-(D16-A)*%
X181424600Y-94140400D02*
X187127500Y-88437500D01*
X53482700Y-94140400D02*
X181424600Y-94140400D01*
X47183800Y-100439300D02*
X53482700Y-94140400D01*
%TO.N,Net-(D15-A)*%
X184886000Y-136506400D02*
X185086100Y-136706500D01*
X176425100Y-136506400D02*
X184886000Y-136506400D01*
X176223400Y-136304700D02*
X176425100Y-136506400D01*
X106237900Y-136304700D02*
X176223400Y-136304700D01*
X100879000Y-141663600D02*
X106237900Y-136304700D01*
X89911200Y-141663600D02*
X100879000Y-141663600D01*
X89534600Y-141287000D02*
X89911200Y-141663600D01*
X73322600Y-141287000D02*
X89534600Y-141287000D01*
X72946000Y-141663600D02*
X73322600Y-141287000D01*
X70861200Y-141663600D02*
X72946000Y-141663600D01*
X70484600Y-141287000D02*
X70861200Y-141663600D01*
X56012700Y-141287000D02*
X70484600Y-141287000D01*
X55691800Y-141607900D02*
X56012700Y-141287000D01*
X47622100Y-141607900D02*
X55691800Y-141607900D01*
X46513800Y-142716200D02*
X47622100Y-141607900D01*
%TO.N,Net-(D14-A)*%
X184233200Y-115776700D02*
X184435900Y-115979400D01*
X147034900Y-115776700D02*
X184233200Y-115776700D01*
X146787300Y-116024300D02*
X147034900Y-115776700D01*
X103592300Y-116024300D02*
X146787300Y-116024300D01*
X97059400Y-122557200D02*
X103592300Y-116024300D01*
X89895200Y-122557200D02*
X97059400Y-122557200D01*
X89579100Y-122241100D02*
X89895200Y-122557200D01*
X82034800Y-122241100D02*
X89579100Y-122241100D01*
X81696600Y-122579300D02*
X82034800Y-122241100D01*
X69842500Y-122579300D02*
X81696600Y-122579300D01*
X69481800Y-122218600D02*
X69842500Y-122579300D01*
X61100500Y-122218600D02*
X69481800Y-122218600D01*
X59664600Y-123654500D02*
X61100500Y-122218600D01*
X46525500Y-123654500D02*
X59664600Y-123654500D01*
X46513800Y-123666200D02*
X46525500Y-123654500D01*
%TO.N,Net-(D13-A)*%
X185002600Y-77812400D02*
X187127500Y-75687500D01*
X100202900Y-77812400D02*
X185002600Y-77812400D01*
X92749200Y-85266100D02*
X100202900Y-77812400D01*
X87648100Y-85266100D02*
X92749200Y-85266100D01*
X85070700Y-87843500D02*
X87648100Y-85266100D01*
X85070700Y-88363200D02*
X85070700Y-87843500D01*
X81651900Y-91782000D02*
X85070700Y-88363200D01*
X48653400Y-91782000D02*
X81651900Y-91782000D01*
%TO.N,Net-(D12-A)*%
X56993600Y-73118500D02*
X47940700Y-82171400D01*
X185446500Y-73118500D02*
X56993600Y-73118500D01*
X187127500Y-71437500D02*
X185446500Y-73118500D01*
%TO.N,Net-(D11-A)*%
X185404100Y-65464100D02*
X187127500Y-67187500D01*
X171639200Y-65464100D02*
X185404100Y-65464100D01*
X168690200Y-62515100D02*
X171639200Y-65464100D01*
X132892200Y-62515100D02*
X168690200Y-62515100D01*
X129999400Y-65407900D02*
X132892200Y-62515100D01*
X128063800Y-65407900D02*
X129999400Y-65407900D01*
X127760300Y-65104400D02*
X128063800Y-65407900D01*
X111405200Y-65104400D02*
X127760300Y-65104400D01*
X111103500Y-65406100D02*
X111405200Y-65104400D01*
X105273700Y-65406100D02*
X111103500Y-65406100D01*
X104964500Y-65096900D02*
X105273700Y-65406100D01*
X92362700Y-65096900D02*
X104964500Y-65096900D01*
X91996000Y-65463600D02*
X92362700Y-65096900D01*
X89911200Y-65463600D02*
X91996000Y-65463600D01*
X89534600Y-65087000D02*
X89911200Y-65463600D01*
X73322600Y-65087000D02*
X89534600Y-65087000D01*
X72946000Y-65463600D02*
X73322600Y-65087000D01*
X70861200Y-65463600D02*
X72946000Y-65463600D01*
X70484600Y-65087000D02*
X70861200Y-65463600D01*
X55083500Y-65087000D02*
X70484600Y-65087000D01*
X54762600Y-65407900D02*
X55083500Y-65087000D01*
X47622100Y-65407900D02*
X54762600Y-65407900D01*
X46513800Y-66516200D02*
X47622100Y-65407900D01*
%TO.N,Net-(D10-A)*%
X185649400Y-61459400D02*
X48737200Y-61459400D01*
X187127500Y-62937500D02*
X185649400Y-61459400D01*
%TO.N,Net-(D9-A)*%
X60276500Y-57435300D02*
X59891900Y-57050700D01*
X95248100Y-57435300D02*
X60276500Y-57435300D01*
X95809100Y-56874300D02*
X95248100Y-57435300D01*
X185314300Y-56874300D02*
X95809100Y-56874300D01*
X187127500Y-58687500D02*
X185314300Y-56874300D01*
%TO.N,Net-(D8-A)*%
X69437100Y-56632900D02*
X69672500Y-56397500D01*
X68273600Y-56632900D02*
X69437100Y-56632900D01*
X67711600Y-56070900D02*
X68273600Y-56632900D01*
X45640500Y-56070900D02*
X67711600Y-56070900D01*
X44952900Y-56758500D02*
X45640500Y-56070900D01*
X185494100Y-56070900D02*
X187127500Y-54437500D01*
X71246000Y-56070900D02*
X185494100Y-56070900D01*
X71078500Y-56238400D02*
X71246000Y-56070900D01*
X69831600Y-56238400D02*
X71078500Y-56238400D01*
X69672500Y-56397500D02*
X69831600Y-56238400D01*
X69672500Y-56397500D02*
X69831600Y-56238400D01*
%TO.N,Net-(D7-A)*%
X39899100Y-57847900D02*
X39198100Y-57146900D01*
X95686200Y-57847900D02*
X39899100Y-57847900D01*
X96258100Y-57276000D02*
X95686200Y-57847900D01*
X180269500Y-57276000D02*
X96258100Y-57276000D01*
X180598600Y-57605100D02*
X180269500Y-57276000D01*
%TO.N,Net-(D6-A)*%
X104082000Y-110617000D02*
X103905400Y-110793600D01*
X119242800Y-110617000D02*
X104082000Y-110617000D01*
X119585700Y-110959900D02*
X119242800Y-110617000D01*
X172461100Y-110959900D02*
X119585700Y-110959900D01*
X172862700Y-110558300D02*
X172461100Y-110959900D01*
X172862700Y-110558200D02*
X172862700Y-110558300D01*
X180199300Y-110558200D02*
X172862700Y-110558200D01*
X103905400Y-110793600D02*
X103740600Y-110958400D01*
X103905400Y-110793600D02*
X103740600Y-110958400D01*
X40171600Y-110958400D02*
X27463800Y-123666200D01*
X103740600Y-110958400D02*
X40171600Y-110958400D01*
%TO.N,Net-(D5-A)*%
X185711500Y-43103500D02*
X187127500Y-41687500D01*
X178601100Y-43103500D02*
X185711500Y-43103500D01*
X178212800Y-43491800D02*
X178601100Y-43103500D01*
X175722300Y-43491800D02*
X178212800Y-43491800D01*
X175334000Y-43103500D02*
X175722300Y-43491800D01*
X114979400Y-43103500D02*
X175334000Y-43103500D01*
X111353300Y-46729600D02*
X114979400Y-43103500D01*
X107138700Y-46729600D02*
X111353300Y-46729600D01*
X104009100Y-49859200D02*
X107138700Y-46729600D01*
X104009100Y-50439400D02*
X104009100Y-49859200D01*
X98779300Y-55669200D02*
X104009100Y-50439400D01*
X71079700Y-55669200D02*
X98779300Y-55669200D01*
X70912200Y-55836700D02*
X71079700Y-55669200D01*
X69665300Y-55836700D02*
X70912200Y-55836700D01*
X69270800Y-56231200D02*
X69665300Y-55836700D01*
X68439900Y-56231200D02*
X69270800Y-56231200D01*
X67877900Y-55669200D02*
X68439900Y-56231200D01*
X39825000Y-55669200D02*
X67877900Y-55669200D01*
X37591500Y-57902700D02*
X39825000Y-55669200D01*
X37591500Y-58154000D02*
X37591500Y-57902700D01*
%TO.N,Net-(D4-A)*%
X32755100Y-38840100D02*
X27026100Y-44569100D01*
X185724900Y-38840100D02*
X32755100Y-38840100D01*
X187127500Y-37437500D02*
X185724900Y-38840100D01*
%TO.N,Net-(D3-A)*%
X185323200Y-34991800D02*
X187127500Y-33187500D01*
X42726100Y-34991800D02*
X185323200Y-34991800D01*
X39923000Y-37794900D02*
X42726100Y-34991800D01*
%TO.N,Net-(D2-A)*%
X179486400Y-41650100D02*
X182392400Y-41650100D01*
X178370200Y-42766300D02*
X179486400Y-41650100D01*
X178370200Y-42766400D02*
X178370200Y-42766300D01*
X178046500Y-43090100D02*
X178370200Y-42766400D01*
X175888600Y-43090100D02*
X178046500Y-43090100D01*
X175564900Y-42766400D02*
X175888600Y-43090100D01*
X175564900Y-42766300D02*
X175564900Y-42766400D01*
X175478100Y-42679500D02*
X175564900Y-42766300D01*
X114242900Y-42679500D02*
X175478100Y-42679500D01*
X110594500Y-46327900D02*
X114242900Y-42679500D01*
X109433200Y-46327900D02*
X110594500Y-46327900D01*
X109088100Y-45982800D02*
X109433200Y-46327900D01*
X102084800Y-45982800D02*
X109088100Y-45982800D01*
X94894500Y-53173100D02*
X102084800Y-45982800D01*
X73007800Y-53173100D02*
X94894500Y-53173100D01*
X70745900Y-55435000D02*
X73007800Y-53173100D01*
X69498900Y-55435000D02*
X70745900Y-55435000D01*
X69457000Y-55476900D02*
X69498900Y-55435000D01*
X69457000Y-55477000D02*
X69457000Y-55476900D01*
X69104500Y-55829500D02*
X69457000Y-55477000D01*
X68606200Y-55829500D02*
X69104500Y-55829500D01*
X68253600Y-55476900D02*
X68606200Y-55829500D01*
X68253600Y-54978700D02*
X68253600Y-55476900D01*
X68606200Y-54626100D02*
X68253600Y-54978700D01*
X69104500Y-54626100D02*
X68606200Y-54626100D01*
X69110000Y-54631600D02*
X69104500Y-54626100D01*
X70413300Y-54631600D02*
X69110000Y-54631600D01*
X72675200Y-52369700D02*
X70413300Y-54631600D01*
X82980200Y-52369700D02*
X72675200Y-52369700D01*
X85872100Y-49477800D02*
X82980200Y-52369700D01*
X85872100Y-48949300D02*
X85872100Y-49477800D01*
X87366900Y-47454500D02*
X85872100Y-48949300D01*
X90445300Y-47454500D02*
X87366900Y-47454500D01*
X92417400Y-45482400D02*
X90445300Y-47454500D01*
X92417400Y-44366500D02*
X92417400Y-45482400D01*
X91554700Y-43503800D02*
X92417400Y-44366500D01*
X31426200Y-43503800D02*
X91554700Y-43503800D01*
X27463800Y-47466200D02*
X31426200Y-43503800D01*
%TO.N,Net-(D1-A)*%
X185558400Y-23118400D02*
X143642600Y-23118400D01*
X187127500Y-24687500D02*
X185558400Y-23118400D01*
X32595300Y-23284700D02*
X27463800Y-28416200D01*
X143476300Y-23284700D02*
X32595300Y-23284700D01*
X143642600Y-23118400D02*
X143476300Y-23284700D01*
X143642600Y-23118400D02*
X143476300Y-23284700D01*
%TO.N,COL 5*%
X145749400Y-159226200D02*
X129063800Y-159226200D01*
X147196900Y-160673700D02*
X145749400Y-159226200D01*
X149854900Y-160673700D02*
X147196900Y-160673700D01*
X150608200Y-159920400D02*
X149854900Y-160673700D01*
X165497000Y-159920400D02*
X150608200Y-159920400D01*
X166701300Y-161124700D02*
X165497000Y-159920400D01*
X187567500Y-161124700D02*
X166701300Y-161124700D01*
X188703500Y-162260700D02*
X187567500Y-161124700D01*
X221325300Y-162260700D02*
X188703500Y-162260700D01*
X225117100Y-166052500D02*
X221325300Y-162260700D01*
X226218800Y-166052500D02*
X225117100Y-166052500D01*
X33813800Y-83026200D02*
X52863800Y-83026200D01*
X52863800Y-83026200D02*
X71913800Y-83026200D01*
X93715900Y-98587700D02*
X92757700Y-97629500D01*
X125575300Y-98587700D02*
X93715900Y-98587700D01*
X129063800Y-102076200D02*
X125575300Y-98587700D01*
X90963800Y-83026200D02*
X71913800Y-83026200D01*
%TO.N,COL 4*%
X223847100Y-172402500D02*
X164399100Y-172402500D01*
X225117100Y-173672500D02*
X223847100Y-172402500D01*
X226218800Y-173672500D02*
X225117100Y-173672500D01*
X33813800Y-102076200D02*
X52863800Y-102076200D01*
X52863800Y-102076200D02*
X71913800Y-102076200D01*
X71913800Y-102076200D02*
X90963800Y-102076200D01*
X134135600Y-100281400D02*
X149253600Y-100281400D01*
X130939100Y-103477900D02*
X134135600Y-100281400D01*
X125581000Y-103477900D02*
X130939100Y-103477900D01*
X125296000Y-103192900D02*
X125581000Y-103477900D01*
X120687800Y-103192900D02*
X125296000Y-103192900D01*
X120389700Y-103491000D02*
X120687800Y-103192900D01*
X108929000Y-103491000D02*
X120389700Y-103491000D01*
X108284200Y-102846200D02*
X108929000Y-103491000D01*
X91733800Y-102846200D02*
X108284200Y-102846200D01*
X90963800Y-102076200D02*
X91733800Y-102846200D01*
%TO.N,COL 6*%
X52863800Y-63976200D02*
X33813800Y-63976200D01*
X71913800Y-63976200D02*
X52863800Y-63976200D01*
X130476500Y-81613500D02*
X129063800Y-83026200D01*
X163178000Y-81613500D02*
X130476500Y-81613500D01*
X167184800Y-85620300D02*
X163178000Y-81613500D01*
X221055100Y-85620300D02*
X167184800Y-85620300D01*
X71913800Y-63976200D02*
X90963800Y-63976200D01*
X92400600Y-62539400D02*
X90963800Y-63976200D01*
X127627000Y-62539400D02*
X92400600Y-62539400D01*
X129063800Y-63976200D02*
X127627000Y-62539400D01*
%TO.N,COL 2*%
X52863800Y-140176200D02*
X71913800Y-140176200D01*
X33813800Y-140176200D02*
X52863800Y-140176200D01*
X71913800Y-140176200D02*
X90963800Y-140176200D01*
X197304500Y-82722400D02*
X197749900Y-83167800D01*
X167363800Y-82722400D02*
X197304500Y-82722400D01*
X167060000Y-83026200D02*
X167363800Y-82722400D01*
X199245200Y-136104700D02*
X199980100Y-135369800D01*
X176591400Y-136104700D02*
X199245200Y-136104700D01*
X176386300Y-135899600D02*
X176591400Y-136104700D01*
X106075000Y-135899600D02*
X176386300Y-135899600D01*
X105755100Y-136219500D02*
X106075000Y-135899600D01*
X94920500Y-136219500D02*
X105755100Y-136219500D01*
X90963800Y-140176200D02*
X94920500Y-136219500D01*
%TO.N,GND*%
X220037100Y-145732500D02*
X210978800Y-145732500D01*
X225117100Y-140652500D02*
X220037100Y-145732500D01*
X226218800Y-140652500D02*
X225117100Y-140652500D01*
%TO.N,COL 7*%
X90669700Y-45220300D02*
X73867800Y-45220300D01*
X90963800Y-44926200D02*
X90669700Y-45220300D01*
X71992900Y-45220300D02*
X71913800Y-45141200D01*
X73867800Y-45220300D02*
X71992900Y-45220300D01*
X53324200Y-45386600D02*
X52863800Y-44926200D01*
X70602000Y-45386600D02*
X53324200Y-45386600D01*
X70768300Y-45220300D02*
X70602000Y-45386600D01*
X73867800Y-45220300D02*
X70768300Y-45220300D01*
X52863800Y-44926200D02*
X33813800Y-44926200D01*
X100440900Y-102076200D02*
X98203000Y-99838300D01*
X110013800Y-102076200D02*
X100440900Y-102076200D01*
X111486800Y-138703200D02*
X110013800Y-140176200D01*
X168453700Y-138703200D02*
X111486800Y-138703200D01*
X170403000Y-140652500D02*
X168453700Y-138703200D01*
X210978800Y-140652500D02*
X170403000Y-140652500D01*
%TO.N,COL 8*%
X33813800Y-25876200D02*
X52863800Y-25876200D01*
X52863800Y-25876200D02*
X71913800Y-25876200D01*
X71913800Y-25876200D02*
X90963800Y-25876200D01*
X110013800Y-25876200D02*
X90963800Y-25876200D01*
X200920700Y-81612100D02*
X201692700Y-82384100D01*
X176133200Y-81612100D02*
X200920700Y-81612100D01*
X175331200Y-80810100D02*
X176133200Y-81612100D01*
X112229900Y-80810100D02*
X175331200Y-80810100D01*
X110013800Y-83026200D02*
X112229900Y-80810100D01*
%TO.N,COL 1*%
X175591300Y-102076200D02*
X177958800Y-104443700D01*
X167060000Y-102076200D02*
X175591300Y-102076200D01*
X33813800Y-159226200D02*
X52290600Y-159226200D01*
X52290600Y-159226200D02*
X52863800Y-159226200D01*
X52290600Y-159226200D02*
X71340600Y-159226200D01*
X71340600Y-159226200D02*
X71913800Y-159226200D01*
X71340600Y-159226200D02*
X90963800Y-159226200D01*
X177641300Y-121126200D02*
X177958800Y-121443700D01*
X167060000Y-121126200D02*
X177641300Y-121126200D01*
X165602400Y-157768600D02*
X167060000Y-159226200D01*
X92421400Y-157768600D02*
X165602400Y-157768600D01*
X90963800Y-159226200D02*
X92421400Y-157768600D01*
X177491300Y-159226200D02*
X177958800Y-159693700D01*
X167060000Y-159226200D02*
X177491300Y-159226200D01*
X167060000Y-140307900D02*
X167060000Y-140176200D01*
X168793900Y-142041800D02*
X167060000Y-140307900D01*
X177306900Y-142041800D02*
X168793900Y-142041800D01*
X177958800Y-142693700D02*
X177306900Y-142041800D01*
X190453800Y-128528700D02*
X191868800Y-129943700D01*
X179373800Y-128528700D02*
X190453800Y-128528700D01*
X177958800Y-129943700D02*
X179373800Y-128528700D01*
X189533100Y-67187500D02*
X190877500Y-67187500D01*
X188127500Y-68593100D02*
X189533100Y-67187500D01*
X178373100Y-68593100D02*
X188127500Y-68593100D01*
X176967500Y-67187500D02*
X178373100Y-68593100D01*
%TO.N,COL 3*%
X33813800Y-121126200D02*
X52863800Y-121126200D01*
X151873900Y-173672500D02*
X149525900Y-171324500D01*
X210978800Y-173672500D02*
X151873900Y-173672500D01*
X90963800Y-121126200D02*
X71913800Y-121126200D01*
X71913800Y-121126200D02*
X52863800Y-121126200D01*
X96667400Y-115422600D02*
X90963800Y-121126200D01*
X146538100Y-115422600D02*
X96667400Y-115422600D01*
%TD*%
M02*
