M48
; DRILL file {KiCad 9.0.7} date 2026-02-25T16:19:23+0400
; FORMAT={-:-/ absolute / metric / decimal}
; #@! TF.CreationDate,2026-02-25T16:19:23+04:00
; #@! TF.GenerationSoftware,Kicad,Pcbnew,9.0.7
; #@! TF.FileFunction,NonPlated,1,2,NPTH
FMAT,2
METRIC
; #@! TA.AperFunction,NonPlated,NPTH,ComponentDrill
T1C1.700
; #@! TA.AperFunction,NonPlated,NPTH,ComponentDrill
T2C4.000
%
G90
G05
T1
X26.194Y-30.956
X26.194Y-50.006
X26.194Y-69.056
X26.194Y-88.106
X26.194Y-107.156
X26.194Y-126.206
X26.194Y-145.256
X26.194Y-164.306
X36.354Y-30.956
X36.354Y-50.006
X36.354Y-69.056
X36.354Y-88.106
X36.354Y-107.156
X36.354Y-126.206
X36.354Y-145.256
X36.354Y-164.306
X45.244Y-30.956
X45.244Y-50.006
X45.244Y-69.056
X45.244Y-88.106
X45.244Y-107.156
X45.244Y-126.206
X45.244Y-145.256
X45.244Y-164.306
X55.404Y-30.956
X55.404Y-50.006
X55.404Y-69.056
X55.404Y-88.106
X55.404Y-107.156
X55.404Y-126.206
X55.404Y-145.256
X55.404Y-164.306
X64.294Y-30.956
X64.294Y-50.221
X64.294Y-69.056
X64.294Y-88.106
X64.294Y-107.156
X64.294Y-126.206
X64.294Y-145.256
X64.294Y-164.306
X74.454Y-30.956
X74.454Y-50.221
X74.454Y-69.056
X74.454Y-88.106
X74.454Y-107.156
X74.454Y-126.206
X74.454Y-145.256
X74.454Y-164.306
X83.344Y-30.956
X83.344Y-50.006
X83.344Y-69.056
X83.344Y-88.106
X83.344Y-107.156
X83.344Y-126.206
X83.344Y-145.256
X83.344Y-164.306
X93.504Y-30.956
X93.504Y-50.006
X93.504Y-69.056
X93.504Y-88.106
X93.504Y-107.156
X93.504Y-126.206
X93.504Y-145.256
X93.504Y-164.306
X102.394Y-30.956
X102.394Y-50.006
X102.394Y-69.056
X102.394Y-88.106
X102.394Y-107.156
X102.394Y-126.206
X102.394Y-145.256
X102.394Y-164.306
X112.554Y-30.956
X112.554Y-50.006
X112.554Y-69.056
X112.554Y-88.106
X112.554Y-107.156
X112.554Y-126.206
X112.554Y-145.256
X112.554Y-164.306
X121.444Y-30.956
X121.444Y-50.006
X121.444Y-69.056
X121.444Y-88.106
X121.444Y-107.156
X121.444Y-126.206
X121.444Y-145.256
X121.444Y-164.306
X131.604Y-30.956
X131.604Y-50.006
X131.604Y-69.056
X131.604Y-88.106
X131.604Y-107.156
X131.604Y-126.206
X131.604Y-145.256
X131.604Y-164.306
X140.494Y-30.956
X140.494Y-50.221
X140.494Y-69.056
X140.494Y-88.106
X140.494Y-107.156
X140.494Y-126.206
X140.494Y-145.256
X140.494Y-164.306
X150.654Y-30.956
X150.654Y-50.221
X150.654Y-69.056
X150.654Y-88.106
X150.654Y-107.156
X150.654Y-126.206
X150.654Y-145.256
X150.654Y-164.306
X159.44Y-30.956
X159.44Y-50.006
X159.44Y-69.056
X159.44Y-88.106
X159.44Y-107.156
X159.44Y-126.206
X159.44Y-145.256
X159.44Y-164.306
X169.6Y-30.956
X169.6Y-50.006
X169.6Y-69.056
X169.6Y-88.106
X169.6Y-107.156
X169.6Y-126.206
X169.6Y-145.256
X169.6Y-164.306
T2
X31.274Y-30.956
X31.274Y-50.006
X31.274Y-69.056
X31.274Y-88.106
X31.274Y-107.156
X31.274Y-126.206
X31.274Y-145.256
X31.274Y-164.306
X50.324Y-30.956
X50.324Y-50.006
X50.324Y-69.056
X50.324Y-88.106
X50.324Y-107.156
X50.324Y-126.206
X50.324Y-145.256
X50.324Y-164.306
X69.374Y-30.956
X69.374Y-50.221
X69.374Y-69.056
X69.374Y-88.106
X69.374Y-107.156
X69.374Y-126.206
X69.374Y-145.256
X69.374Y-164.306
X88.424Y-30.956
X88.424Y-50.006
X88.424Y-69.056
X88.424Y-88.106
X88.424Y-107.156
X88.424Y-126.206
X88.424Y-145.256
X88.424Y-164.306
X107.474Y-30.956
X107.474Y-50.006
X107.474Y-69.056
X107.474Y-88.106
X107.474Y-107.156
X107.474Y-126.206
X107.474Y-145.256
X107.474Y-164.306
X126.524Y-30.956
X126.524Y-50.006
X126.524Y-69.056
X126.524Y-88.106
X126.524Y-107.156
X126.524Y-126.206
X126.524Y-145.256
X126.524Y-164.306
X145.574Y-30.956
X145.574Y-50.221
X145.574Y-69.056
X145.574Y-88.106
X145.574Y-107.156
X145.574Y-126.206
X145.574Y-145.256
X145.574Y-164.306
X164.52Y-30.956
X164.52Y-50.006
X164.52Y-69.056
X164.52Y-88.106
X164.52Y-107.156
X164.52Y-126.206
X164.52Y-145.256
X164.52Y-164.306
M30
