M48
; DRILL file {KiCad 9.0.7} date 2026-02-25T16:19:23+0400
; FORMAT={-:-/ absolute / metric / decimal}
; #@! TF.CreationDate,2026-02-25T16:19:23+04:00
; #@! TF.GenerationSoftware,Kicad,Pcbnew,9.0.7
; #@! TF.FileFunction,Plated,1,2,PTH
FMAT,2
METRIC
; #@! TA.AperFunction,Plated,PTH,ViaDrill
T1C0.300
; #@! TA.AperFunction,Plated,PTH,ComponentDrill
T2C1.000
; #@! TA.AperFunction,Plated,PTH,ComponentDrill
T3C1.100
; #@! TA.AperFunction,Plated,PTH,ComponentDrill
T4C1.500
%
G90
G05
T1
X27.026Y-44.569
X37.591Y-58.154
X39.198Y-57.147
X39.923Y-37.795
X44.953Y-56.758
X47.184Y-100.439
X47.941Y-82.171
X48.653Y-91.782
X48.737Y-61.459
X59.892Y-57.051
X65.867Y-35.726
X67.015Y-113.496
X68.855Y-37.97
X68.855Y-55.228
X78.955Y-59.308
X80.806Y-41.621
X83.705Y-56.822
X86.782Y-76.995
X86.782Y-91.782
X87.32Y-62.107
X92.758Y-97.629
X95.745Y-60.497
X98.203Y-99.838
X103.878Y-96.808
X104.707Y-112.713
X104.709Y-135.137
X105.358Y-85.644
X105.506Y-97.629
X105.506Y-135.618
X105.7Y-112.916
X119.024Y-55.469
X119.024Y-111.249
X123.155Y-132.919
X125.623Y-141.689
X129.647Y-136.915
X143.184Y-128.024
X143.55Y-97.219
X146.538Y-115.423
X146.538Y-129.928
X149.254Y-100.281
X149.526Y-171.325
X158.895Y-133.662
X164.399Y-172.403
X168.088Y-65.877
X168.652Y-141.049
X172.23Y-110.34
X180.199Y-110.558
X180.599Y-57.605
X181.557Y-121.317
X182.392Y-41.65
X184.436Y-115.979
X184.755Y-34.372
X185.086Y-136.707
X189.269Y-69.196
X193.921Y-124.304
X195.211Y-87.054
X195.575Y-88.808
X196.818Y-68.664
X197.567Y-46.656
X197.75Y-83.168
X198.476Y-38.981
X198.861Y-110.514
X199.46Y-112.368
X199.638Y-28.032
X199.98Y-135.37
X201.693Y-82.384
X221.055Y-85.62
T2
X210.979Y-138.112
X210.979Y-140.653
X210.979Y-143.192
X210.979Y-145.732
X210.979Y-148.272
X210.979Y-150.812
X210.979Y-153.352
X210.979Y-155.892
X210.979Y-158.433
X210.979Y-160.972
X210.979Y-163.512
X210.979Y-166.052
X210.979Y-168.593
X210.979Y-171.132
X210.979Y-173.672
X211.614Y-59.531
X214.154Y-59.531
X216.694Y-59.531
X219.234Y-59.531
X226.219Y-138.112
X226.219Y-140.653
X226.219Y-143.192
X226.219Y-145.732
X226.219Y-148.272
X226.219Y-150.812
X226.219Y-153.352
X226.219Y-155.892
X226.219Y-158.433
X226.219Y-160.972
X226.219Y-163.512
X226.219Y-166.052
X226.219Y-168.593
X226.219Y-171.132
X226.219Y-173.672
T3
X176.968Y-24.688
X176.968Y-28.938
X176.968Y-33.188
X176.968Y-37.438
X176.968Y-41.688
X176.968Y-45.938
X176.968Y-50.188
X176.968Y-54.438
X176.968Y-58.688
X176.968Y-62.938
X176.968Y-67.188
X176.968Y-71.438
X176.968Y-75.688
X176.968Y-79.938
X176.968Y-84.188
X176.968Y-88.438
X177.959Y-100.194
X177.959Y-104.444
X177.959Y-108.694
X177.959Y-112.944
X177.959Y-117.194
X177.959Y-121.444
X177.959Y-125.694
X177.959Y-129.944
X177.959Y-134.194
X177.959Y-138.444
X177.959Y-142.694
X177.959Y-146.944
X177.959Y-151.194
X177.959Y-155.444
X177.959Y-159.694
X177.959Y-163.944
X187.127Y-24.688
X187.127Y-28.938
X187.127Y-33.188
X187.127Y-37.438
X187.127Y-41.688
X187.127Y-45.938
X187.127Y-50.188
X187.127Y-54.438
X187.127Y-58.688
X187.127Y-62.938
X187.127Y-67.188
X187.127Y-71.438
X187.127Y-75.688
X187.127Y-79.938
X187.127Y-84.188
X187.127Y-88.438
X188.119Y-100.194
X188.119Y-104.444
X188.119Y-108.694
X188.119Y-112.944
X188.119Y-117.194
X188.119Y-121.444
X188.119Y-125.694
X188.119Y-129.944
X188.119Y-134.194
X188.119Y-138.444
X188.119Y-142.694
X188.119Y-146.944
X188.119Y-151.194
X188.119Y-155.444
X188.119Y-159.694
X188.119Y-163.944
X190.877Y-24.688
X190.877Y-28.938
X190.877Y-33.188
X190.877Y-37.438
X190.877Y-41.688
X190.877Y-45.938
X190.877Y-50.188
X190.877Y-54.438
X190.877Y-58.688
X190.877Y-62.938
X190.877Y-67.188
X190.877Y-71.438
X190.877Y-75.688
X190.877Y-79.938
X190.877Y-84.188
X190.877Y-88.438
X191.869Y-100.194
X191.869Y-104.444
X191.869Y-108.694
X191.869Y-112.944
X191.869Y-117.194
X191.869Y-121.444
X191.869Y-125.694
X191.869Y-129.944
X191.869Y-134.194
X191.869Y-138.444
X191.869Y-142.694
X191.869Y-146.944
X191.869Y-151.194
X191.869Y-155.444
X191.869Y-159.694
X191.869Y-163.944
X201.037Y-24.688
X201.037Y-28.938
X201.037Y-33.188
X201.037Y-37.438
X201.037Y-41.688
X201.037Y-45.938
X201.037Y-50.188
X201.037Y-54.438
X201.037Y-58.688
X201.037Y-62.938
X201.037Y-67.188
X201.037Y-71.438
X201.037Y-75.688
X201.037Y-79.938
X201.037Y-84.188
X201.037Y-88.438
X202.029Y-100.194
X202.029Y-104.444
X202.029Y-108.694
X202.029Y-112.944
X202.029Y-117.194
X202.029Y-121.444
X202.029Y-125.694
X202.029Y-129.944
X202.029Y-134.194
X202.029Y-138.444
X202.029Y-142.694
X202.029Y-146.944
X202.029Y-151.194
X202.029Y-155.444
X202.029Y-159.694
X202.029Y-163.944
T4
X27.464Y-28.416
X27.464Y-47.466
X27.464Y-66.516
X27.464Y-85.566
X27.464Y-104.616
X27.464Y-123.666
X27.464Y-142.716
X27.464Y-161.766
X33.814Y-25.876
X33.814Y-44.926
X33.814Y-63.976
X33.814Y-83.026
X33.814Y-102.076
X33.814Y-121.126
X33.814Y-140.176
X33.814Y-159.226
X46.514Y-28.416
X46.514Y-47.466
X46.514Y-66.516
X46.514Y-85.566
X46.514Y-104.616
X46.514Y-123.666
X46.514Y-142.716
X46.514Y-161.766
X52.864Y-25.876
X52.864Y-44.926
X52.864Y-63.976
X52.864Y-83.026
X52.864Y-102.076
X52.864Y-121.126
X52.864Y-140.176
X52.864Y-159.226
X65.564Y-28.416
X65.564Y-47.681
X65.564Y-66.516
X65.564Y-85.566
X65.564Y-104.616
X65.564Y-123.666
X65.564Y-142.716
X65.564Y-161.766
X71.914Y-25.876
X71.914Y-45.141
X71.914Y-63.976
X71.914Y-83.026
X71.914Y-102.076
X71.914Y-121.126
X71.914Y-140.176
X71.914Y-159.226
X84.614Y-28.416
X84.614Y-47.466
X84.614Y-66.516
X84.614Y-85.566
X84.614Y-104.616
X84.614Y-123.666
X84.614Y-142.716
X84.614Y-161.766
X90.964Y-25.876
X90.964Y-44.926
X90.964Y-63.976
X90.964Y-83.026
X90.964Y-102.076
X90.964Y-121.126
X90.964Y-140.176
X90.964Y-159.226
X103.664Y-28.416
X103.664Y-47.466
X103.664Y-66.516
X103.664Y-85.566
X103.664Y-104.616
X103.664Y-123.666
X103.664Y-142.716
X103.664Y-161.766
X110.014Y-25.876
X110.014Y-44.926
X110.014Y-63.976
X110.014Y-83.026
X110.014Y-102.076
X110.014Y-121.126
X110.014Y-140.176
X110.014Y-159.226
X122.714Y-28.416
X122.714Y-47.466
X122.714Y-66.516
X122.714Y-85.566
X122.714Y-104.616
X122.714Y-123.666
X122.714Y-142.716
X122.714Y-161.766
X129.064Y-25.876
X129.064Y-44.926
X129.064Y-63.976
X129.064Y-83.026
X129.064Y-102.076
X129.064Y-121.126
X129.064Y-140.176
X129.064Y-159.226
X141.764Y-28.416
X141.764Y-47.681
X141.764Y-66.516
X141.764Y-85.566
X141.764Y-104.616
X141.764Y-123.666
X141.764Y-142.716
X141.764Y-161.766
X148.114Y-25.876
X148.114Y-45.141
X148.114Y-63.976
X148.114Y-83.026
X148.114Y-102.076
X148.114Y-121.126
X148.114Y-140.176
X148.114Y-159.226
X160.71Y-28.416
X160.71Y-47.466
X160.71Y-66.516
X160.71Y-85.566
X160.71Y-104.616
X160.71Y-123.666
X160.71Y-142.716
X160.71Y-161.766
X167.06Y-25.876
X167.06Y-44.926
X167.06Y-63.976
X167.06Y-83.026
X167.06Y-102.076
X167.06Y-121.126
X167.06Y-140.176
X167.06Y-159.226
M30
