%TF.GenerationSoftware,KiCad,Pcbnew,9.0.7*%
%TF.CreationDate,2026-02-25T16:19:16+04:00*%
%TF.ProjectId,Launchpad v1,4c61756e-6368-4706-9164-2076312e6b69,rev?*%
%TF.SameCoordinates,Original*%
%TF.FileFunction,Copper,L2,Bot*%
%TF.FilePolarity,Positive*%
%FSLAX46Y46*%
G04 Gerber Fmt 4.6, Leading zero omitted, Abs format (unit mm)*
G04 Created by KiCad (PCBNEW 9.0.7) date 2026-02-25 16:19:16*
%MOMM*%
%LPD*%
G01*
G04 APERTURE LIST*
G04 Aperture macros list*
%AMRoundRect*
0 Rectangle with rounded corners*
0 $1 Rounding radius*
0 $2 $3 $4 $5 $6 $7 $8 $9 X,Y pos of 4 corners*
0 Add a 4 corners polygon primitive as box body*
4,1,4,$2,$3,$4,$5,$6,$7,$8,$9,$2,$3,0*
0 Add four circle primitives for the rounded corners*
1,1,$1+$1,$2,$3*
1,1,$1+$1,$4,$5*
1,1,$1+$1,$6,$7*
1,1,$1+$1,$8,$9*
0 Add four rect primitives between the rounded corners*
20,1,$1+$1,$2,$3,$4,$5,0*
20,1,$1+$1,$4,$5,$6,$7,0*
20,1,$1+$1,$6,$7,$8,$9,0*
20,1,$1+$1,$8,$9,$2,$3,0*%
G04 Aperture macros list end*
%TA.AperFunction,ComponentPad*%
%ADD10RoundRect,0.249999X-0.850001X-0.850001X0.850001X-0.850001X0.850001X0.850001X-0.850001X0.850001X0*%
%TD*%
%TA.AperFunction,ComponentPad*%
%ADD11C,2.200000*%
%TD*%
%TA.AperFunction,ComponentPad*%
%ADD12RoundRect,0.170000X-0.680000X-0.680000X0.680000X-0.680000X0.680000X0.680000X-0.680000X0.680000X0*%
%TD*%
%TA.AperFunction,ComponentPad*%
%ADD13C,1.700000*%
%TD*%
%TA.AperFunction,ComponentPad*%
%ADD14R,1.600000X1.600000*%
%TD*%
%TA.AperFunction,ComponentPad*%
%ADD15O,1.600000X1.600000*%
%TD*%
%TA.AperFunction,ViaPad*%
%ADD16C,0.600000*%
%TD*%
%TA.AperFunction,Conductor*%
%ADD17C,0.200000*%
%TD*%
G04 APERTURE END LIST*
D10*
%TO.P,D49,1,K*%
%TO.N,COL 1*%
X191868800Y-100193700D03*
D11*
%TO.P,D49,2,A*%
%TO.N,Net-(D49-A)*%
X202028800Y-100193700D03*
%TD*%
D10*
%TO.P,D50,1,K*%
%TO.N,COL 1*%
X191868800Y-104443700D03*
D11*
%TO.P,D50,2,A*%
%TO.N,Net-(D50-A)*%
X202028800Y-104443700D03*
%TD*%
D10*
%TO.P,D55,1,K*%
%TO.N,COL 1*%
X191868800Y-125693700D03*
D11*
%TO.P,D55,2,A*%
%TO.N,Net-(D55-A)*%
X202028800Y-125693700D03*
%TD*%
D10*
%TO.P,D51,1,K*%
%TO.N,COL 1*%
X191868800Y-108693700D03*
D11*
%TO.P,D51,2,A*%
%TO.N,Net-(D51-A)*%
X202028800Y-108693700D03*
%TD*%
D10*
%TO.P,D54,1,K*%
%TO.N,COL 1*%
X191868800Y-121443700D03*
D11*
%TO.P,D54,2,A*%
%TO.N,Net-(D54-A)*%
X202028800Y-121443700D03*
%TD*%
D10*
%TO.P,D56,1,K*%
%TO.N,COL 1*%
X191868800Y-129943700D03*
D11*
%TO.P,D56,2,A*%
%TO.N,Net-(D56-A)*%
X202028800Y-129943700D03*
%TD*%
D10*
%TO.P,D63,1,K*%
%TO.N,COL 1*%
X191868800Y-159693700D03*
D11*
%TO.P,D63,2,A*%
%TO.N,Net-(D63-A)*%
X202028800Y-159693700D03*
%TD*%
D10*
%TO.P,D52,1,K*%
%TO.N,COL 1*%
X191868800Y-112943700D03*
D11*
%TO.P,D52,2,A*%
%TO.N,Net-(D52-A)*%
X202028800Y-112943700D03*
%TD*%
D10*
%TO.P,D53,1,K*%
%TO.N,COL 1*%
X191868800Y-117193700D03*
D11*
%TO.P,D53,2,A*%
%TO.N,Net-(D53-A)*%
X202028800Y-117193700D03*
%TD*%
D10*
%TO.P,D60,1,K*%
%TO.N,COL 1*%
X191868800Y-146943700D03*
D11*
%TO.P,D60,2,A*%
%TO.N,Net-(D60-A)*%
X202028800Y-146943700D03*
%TD*%
D10*
%TO.P,D61,1,K*%
%TO.N,COL 1*%
X191868800Y-151193700D03*
D11*
%TO.P,D61,2,A*%
%TO.N,Net-(D61-A)*%
X202028800Y-151193700D03*
%TD*%
D10*
%TO.P,D57,1,K*%
%TO.N,COL 1*%
X191868800Y-134193700D03*
D11*
%TO.P,D57,2,A*%
%TO.N,Net-(D57-A)*%
X202028800Y-134193700D03*
%TD*%
D10*
%TO.P,D58,1,K*%
%TO.N,COL 1*%
X191868800Y-138443700D03*
D11*
%TO.P,D58,2,A*%
%TO.N,Net-(D58-A)*%
X202028800Y-138443700D03*
%TD*%
D10*
%TO.P,D59,1,K*%
%TO.N,COL 1*%
X191868800Y-142693700D03*
D11*
%TO.P,D59,2,A*%
%TO.N,Net-(D59-A)*%
X202028800Y-142693700D03*
%TD*%
D10*
%TO.P,D62,1,K*%
%TO.N,COL 1*%
X191868800Y-155443700D03*
D11*
%TO.P,D62,2,A*%
%TO.N,Net-(D62-A)*%
X202028800Y-155443700D03*
%TD*%
%TO.P,SW59,2,2*%
%TO.N,Net-(D59-A)*%
X160710000Y-66516200D03*
%TO.P,SW59,1,1*%
%TO.N,COL 2*%
X167060000Y-63976200D03*
%TD*%
%TO.P,SW57,1,1*%
%TO.N,COL 2*%
X167060000Y-25876200D03*
%TO.P,SW57,2,2*%
%TO.N,Net-(D57-A)*%
X160710000Y-28416200D03*
%TD*%
%TO.P,SW58,1,1*%
%TO.N,COL 2*%
X167060000Y-44926200D03*
%TO.P,SW58,2,2*%
%TO.N,Net-(D58-A)*%
X160710000Y-47466200D03*
%TD*%
%TO.P,SW60,2,2*%
%TO.N,Net-(D60-A)*%
X160710000Y-85566200D03*
%TO.P,SW60,1,1*%
%TO.N,COL 2*%
X167060000Y-83026200D03*
%TD*%
%TO.P,D31,2,A*%
%TO.N,Net-(D31-A)*%
X201037500Y-84187500D03*
D10*
%TO.P,D31,1,K*%
%TO.N,COL 1*%
X190877500Y-84187500D03*
%TD*%
D11*
%TO.P,D35,2,A*%
%TO.N,Net-(D35-A)*%
X188118800Y-108693700D03*
D10*
%TO.P,D35,1,K*%
%TO.N,COL 1*%
X177958800Y-108693700D03*
%TD*%
D11*
%TO.P,D33,2,A*%
%TO.N,Net-(D33-A)*%
X188118800Y-100193700D03*
D10*
%TO.P,D33,1,K*%
%TO.N,COL 1*%
X177958800Y-100193700D03*
%TD*%
D11*
%TO.P,D40,2,A*%
%TO.N,Net-(D40-A)*%
X188118800Y-129943700D03*
D10*
%TO.P,D40,1,K*%
%TO.N,COL 1*%
X177958800Y-129943700D03*
%TD*%
D11*
%TO.P,D38,2,A*%
%TO.N,Net-(D38-A)*%
X188118800Y-121443700D03*
D10*
%TO.P,D38,1,K*%
%TO.N,COL 1*%
X177958800Y-121443700D03*
%TD*%
D11*
%TO.P,D43,2,A*%
%TO.N,Net-(D43-A)*%
X188118800Y-142693700D03*
D10*
%TO.P,D43,1,K*%
%TO.N,COL 1*%
X177958800Y-142693700D03*
%TD*%
D11*
%TO.P,D34,2,A*%
%TO.N,Net-(D34-A)*%
X188118800Y-104443700D03*
D10*
%TO.P,D34,1,K*%
%TO.N,COL 1*%
X177958800Y-104443700D03*
%TD*%
D11*
%TO.P,D36,2,A*%
%TO.N,Net-(D36-A)*%
X188118800Y-112943700D03*
D10*
%TO.P,D36,1,K*%
%TO.N,COL 1*%
X177958800Y-112943700D03*
%TD*%
D11*
%TO.P,D30,2,A*%
%TO.N,Net-(D30-A)*%
X201037500Y-79937500D03*
D10*
%TO.P,D30,1,K*%
%TO.N,COL 1*%
X190877500Y-79937500D03*
%TD*%
D11*
%TO.P,D32,2,A*%
%TO.N,Net-(D32-A)*%
X201037500Y-88437500D03*
D10*
%TO.P,D32,1,K*%
%TO.N,COL 1*%
X190877500Y-88437500D03*
%TD*%
D11*
%TO.P,D37,2,A*%
%TO.N,Net-(D37-A)*%
X188118800Y-117193700D03*
D10*
%TO.P,D37,1,K*%
%TO.N,COL 1*%
X177958800Y-117193700D03*
%TD*%
D11*
%TO.P,D39,2,A*%
%TO.N,Net-(D39-A)*%
X188118800Y-125693700D03*
D10*
%TO.P,D39,1,K*%
%TO.N,COL 1*%
X177958800Y-125693700D03*
%TD*%
D11*
%TO.P,D41,2,A*%
%TO.N,Net-(D41-A)*%
X188118800Y-134193700D03*
D10*
%TO.P,D41,1,K*%
%TO.N,COL 1*%
X177958800Y-134193700D03*
%TD*%
D11*
%TO.P,D42,2,A*%
%TO.N,Net-(D42-A)*%
X188118800Y-138443700D03*
D10*
%TO.P,D42,1,K*%
%TO.N,COL 1*%
X177958800Y-138443700D03*
%TD*%
D11*
%TO.P,D48,2,A*%
%TO.N,Net-(D48-A)*%
X188118800Y-163943700D03*
D10*
%TO.P,D48,1,K*%
%TO.N,COL 1*%
X177958800Y-163943700D03*
%TD*%
D11*
%TO.P,D44,2,A*%
%TO.N,Net-(D44-A)*%
X188118800Y-146943700D03*
D10*
%TO.P,D44,1,K*%
%TO.N,COL 1*%
X177958800Y-146943700D03*
%TD*%
D11*
%TO.P,D47,2,A*%
%TO.N,Net-(D47-A)*%
X188118800Y-159693700D03*
D10*
%TO.P,D47,1,K*%
%TO.N,COL 1*%
X177958800Y-159693700D03*
%TD*%
D11*
%TO.P,D46,2,A*%
%TO.N,Net-(D46-A)*%
X188118800Y-155443700D03*
D10*
%TO.P,D46,1,K*%
%TO.N,COL 1*%
X177958800Y-155443700D03*
%TD*%
D11*
%TO.P,D45,2,A*%
%TO.N,Net-(D45-A)*%
X188118800Y-151193700D03*
D10*
%TO.P,D45,1,K*%
%TO.N,COL 1*%
X177958800Y-151193700D03*
%TD*%
D11*
%TO.P,D64,2,A*%
%TO.N,Net-(D64-A)*%
X202028800Y-163943700D03*
D10*
%TO.P,D64,1,K*%
%TO.N,COL 1*%
X191868800Y-163943700D03*
%TD*%
D11*
%TO.P,D1,2,A*%
%TO.N,Net-(D1-A)*%
X187127500Y-24687500D03*
D10*
%TO.P,D1,1,K*%
%TO.N,COL 1*%
X176967500Y-24687500D03*
%TD*%
D11*
%TO.P,D5,2,A*%
%TO.N,Net-(D5-A)*%
X187127500Y-41687500D03*
D10*
%TO.P,D5,1,K*%
%TO.N,COL 1*%
X176967500Y-41687500D03*
%TD*%
D11*
%TO.P,D2,2,A*%
%TO.N,Net-(D2-A)*%
X187127500Y-28937500D03*
D10*
%TO.P,D2,1,K*%
%TO.N,COL 1*%
X176967500Y-28937500D03*
%TD*%
D11*
%TO.P,D8,2,A*%
%TO.N,Net-(D8-A)*%
X187127500Y-54437500D03*
D10*
%TO.P,D8,1,K*%
%TO.N,COL 1*%
X176967500Y-54437500D03*
%TD*%
D11*
%TO.P,D3,2,A*%
%TO.N,Net-(D3-A)*%
X187127500Y-33187500D03*
D10*
%TO.P,D3,1,K*%
%TO.N,COL 1*%
X176967500Y-33187500D03*
%TD*%
D11*
%TO.P,D4,2,A*%
%TO.N,Net-(D4-A)*%
X187127500Y-37437500D03*
D10*
%TO.P,D4,1,K*%
%TO.N,COL 1*%
X176967500Y-37437500D03*
%TD*%
D11*
%TO.P,D6,2,A*%
%TO.N,Net-(D6-A)*%
X187127500Y-45937500D03*
D10*
%TO.P,D6,1,K*%
%TO.N,COL 1*%
X176967500Y-45937500D03*
%TD*%
D11*
%TO.P,D7,2,A*%
%TO.N,Net-(D7-A)*%
X187127500Y-50187500D03*
D10*
%TO.P,D7,1,K*%
%TO.N,COL 1*%
X176967500Y-50187500D03*
%TD*%
D11*
%TO.P,D12,2,A*%
%TO.N,Net-(D12-A)*%
X187127500Y-71437500D03*
D10*
%TO.P,D12,1,K*%
%TO.N,COL 1*%
X176967500Y-71437500D03*
%TD*%
D11*
%TO.P,D13,2,A*%
%TO.N,Net-(D13-A)*%
X187127500Y-75687500D03*
D10*
%TO.P,D13,1,K*%
%TO.N,COL 1*%
X176967500Y-75687500D03*
%TD*%
D11*
%TO.P,D19,2,A*%
%TO.N,Net-(D19-A)*%
X201037500Y-33187500D03*
D10*
%TO.P,D19,1,K*%
%TO.N,COL 1*%
X190877500Y-33187500D03*
%TD*%
D11*
%TO.P,D17,2,A*%
%TO.N,Net-(D17-A)*%
X201037500Y-24687500D03*
D10*
%TO.P,D17,1,K*%
%TO.N,COL 1*%
X190877500Y-24687500D03*
%TD*%
D11*
%TO.P,D15,2,A*%
%TO.N,Net-(D15-A)*%
X187127500Y-84187500D03*
D10*
%TO.P,D15,1,K*%
%TO.N,COL 1*%
X176967500Y-84187500D03*
%TD*%
D11*
%TO.P,D14,2,A*%
%TO.N,Net-(D14-A)*%
X187127500Y-79937500D03*
D10*
%TO.P,D14,1,K*%
%TO.N,COL 1*%
X176967500Y-79937500D03*
%TD*%
D11*
%TO.P,D9,2,A*%
%TO.N,Net-(D9-A)*%
X187127500Y-58687500D03*
D10*
%TO.P,D9,1,K*%
%TO.N,COL 1*%
X176967500Y-58687500D03*
%TD*%
D11*
%TO.P,D10,2,A*%
%TO.N,Net-(D10-A)*%
X187127500Y-62937500D03*
D10*
%TO.P,D10,1,K*%
%TO.N,COL 1*%
X176967500Y-62937500D03*
%TD*%
D11*
%TO.P,D11,2,A*%
%TO.N,Net-(D11-A)*%
X187127500Y-67187500D03*
D10*
%TO.P,D11,1,K*%
%TO.N,COL 1*%
X176967500Y-67187500D03*
%TD*%
D11*
%TO.P,D16,2,A*%
%TO.N,Net-(D16-A)*%
X187127500Y-88437500D03*
D10*
%TO.P,D16,1,K*%
%TO.N,COL 1*%
X176967500Y-88437500D03*
%TD*%
D11*
%TO.P,D18,2,A*%
%TO.N,Net-(D18-A)*%
X201037500Y-28937500D03*
D10*
%TO.P,D18,1,K*%
%TO.N,COL 1*%
X190877500Y-28937500D03*
%TD*%
D11*
%TO.P,D24,2,A*%
%TO.N,Net-(D24-A)*%
X201037500Y-54437500D03*
D10*
%TO.P,D24,1,K*%
%TO.N,COL 1*%
X190877500Y-54437500D03*
%TD*%
D11*
%TO.P,D23,2,A*%
%TO.N,Net-(D23-A)*%
X201037500Y-50187500D03*
D10*
%TO.P,D23,1,K*%
%TO.N,COL 1*%
X190877500Y-50187500D03*
%TD*%
D11*
%TO.P,D26,2,A*%
%TO.N,Net-(D26-A)*%
X201037500Y-62937500D03*
D10*
%TO.P,D26,1,K*%
%TO.N,COL 1*%
X190877500Y-62937500D03*
%TD*%
D11*
%TO.P,D21,2,A*%
%TO.N,Net-(D21-A)*%
X201037500Y-41687500D03*
D10*
%TO.P,D21,1,K*%
%TO.N,COL 1*%
X190877500Y-41687500D03*
%TD*%
D11*
%TO.P,D22,2,A*%
%TO.N,Net-(D22-A)*%
X201037500Y-45937500D03*
D10*
%TO.P,D22,1,K*%
%TO.N,COL 1*%
X190877500Y-45937500D03*
%TD*%
D11*
%TO.P,D27,2,A*%
%TO.N,Net-(D27-A)*%
X201037500Y-67187500D03*
D10*
%TO.P,D27,1,K*%
%TO.N,COL 1*%
X190877500Y-67187500D03*
%TD*%
D11*
%TO.P,D28,2,A*%
%TO.N,Net-(D28-A)*%
X201037500Y-71437500D03*
D10*
%TO.P,D28,1,K*%
%TO.N,COL 1*%
X190877500Y-71437500D03*
%TD*%
D11*
%TO.P,D20,2,A*%
%TO.N,Net-(D20-A)*%
X201037500Y-37437500D03*
D10*
%TO.P,D20,1,K*%
%TO.N,COL 1*%
X190877500Y-37437500D03*
%TD*%
D11*
%TO.P,D25,2,A*%
%TO.N,Net-(D25-A)*%
X201037500Y-58687500D03*
D10*
%TO.P,D25,1,K*%
%TO.N,COL 1*%
X190877500Y-58687500D03*
%TD*%
D11*
%TO.P,D29,2,A*%
%TO.N,Net-(D29-A)*%
X201037500Y-75687500D03*
D10*
%TO.P,D29,1,K*%
%TO.N,COL 1*%
X190877500Y-75687500D03*
%TD*%
D11*
%TO.P,SW61,1,1*%
%TO.N,COL 1*%
X167060000Y-102076200D03*
%TO.P,SW61,2,2*%
%TO.N,Net-(D61-A)*%
X160710000Y-104616200D03*
%TD*%
%TO.P,SW63,1,1*%
%TO.N,COL 1*%
X167060000Y-140176200D03*
%TO.P,SW63,2,2*%
%TO.N,Net-(D63-A)*%
X160710000Y-142716200D03*
%TD*%
%TO.P,SW62,1,1*%
%TO.N,COL 1*%
X167060000Y-121126200D03*
%TO.P,SW62,2,2*%
%TO.N,Net-(D62-A)*%
X160710000Y-123666200D03*
%TD*%
%TO.P,SW64,1,1*%
%TO.N,COL 1*%
X167060000Y-159226200D03*
%TO.P,SW64,2,2*%
%TO.N,Net-(D64-A)*%
X160710000Y-161766200D03*
%TD*%
%TO.P,SW48,2,2*%
%TO.N,Net-(D48-A)*%
X122713800Y-161766200D03*
%TO.P,SW48,1,1*%
%TO.N,COL 5*%
X129063800Y-159226200D03*
%TD*%
%TO.P,SW47,2,2*%
%TO.N,Net-(D47-A)*%
X122713800Y-142716200D03*
%TO.P,SW47,1,1*%
%TO.N,COL 5*%
X129063800Y-140176200D03*
%TD*%
%TO.P,SW46,2,2*%
%TO.N,Net-(D46-A)*%
X122713800Y-123666200D03*
%TO.P,SW46,1,1*%
%TO.N,COL 5*%
X129063800Y-121126200D03*
%TD*%
%TO.P,SW45,2,2*%
%TO.N,Net-(D45-A)*%
X122713800Y-104616200D03*
%TO.P,SW45,1,1*%
%TO.N,COL 5*%
X129063800Y-102076200D03*
%TD*%
%TO.P,SW43,2,2*%
%TO.N,Net-(D43-A)*%
X122713800Y-66516200D03*
%TO.P,SW43,1,1*%
%TO.N,COL 6*%
X129063800Y-63976200D03*
%TD*%
%TO.P,SW39,2,2*%
%TO.N,Net-(D39-A)*%
X103663800Y-142716200D03*
%TO.P,SW39,1,1*%
%TO.N,COL 7*%
X110013800Y-140176200D03*
%TD*%
%TO.P,SW38,2,2*%
%TO.N,Net-(D38-A)*%
X103663800Y-123666200D03*
%TO.P,SW38,1,1*%
%TO.N,COL 7*%
X110013800Y-121126200D03*
%TD*%
%TO.P,SW37,2,2*%
%TO.N,Net-(D37-A)*%
X103663800Y-104616200D03*
%TO.P,SW37,1,1*%
%TO.N,COL 7*%
X110013800Y-102076200D03*
%TD*%
%TO.P,SW35,2,2*%
%TO.N,Net-(D35-A)*%
X103663800Y-66516200D03*
%TO.P,SW35,1,1*%
%TO.N,COL 8*%
X110013800Y-63976200D03*
%TD*%
%TO.P,SW32,2,2*%
%TO.N,Net-(D32-A)*%
X84613800Y-161766200D03*
%TO.P,SW32,1,1*%
%TO.N,COL 1*%
X90963800Y-159226200D03*
%TD*%
%TO.P,SW41,2,2*%
%TO.N,Net-(D41-A)*%
X122713800Y-28416200D03*
%TO.P,SW41,1,1*%
%TO.N,COL 6*%
X129063800Y-25876200D03*
%TD*%
%TO.P,SW44,2,2*%
%TO.N,Net-(D44-A)*%
X122713800Y-85566200D03*
%TO.P,SW44,1,1*%
%TO.N,COL 6*%
X129063800Y-83026200D03*
%TD*%
%TO.P,SW42,2,2*%
%TO.N,Net-(D42-A)*%
X122713800Y-47466200D03*
%TO.P,SW42,1,1*%
%TO.N,COL 6*%
X129063800Y-44926200D03*
%TD*%
%TO.P,SW40,2,2*%
%TO.N,Net-(D40-A)*%
X103663800Y-161766200D03*
%TO.P,SW40,1,1*%
%TO.N,COL 7*%
X110013800Y-159226200D03*
%TD*%
%TO.P,SW34,2,2*%
%TO.N,Net-(D34-A)*%
X103663800Y-47466200D03*
%TO.P,SW34,1,1*%
%TO.N,COL 8*%
X110013800Y-44926200D03*
%TD*%
%TO.P,SW30,2,2*%
%TO.N,Net-(D30-A)*%
X84613800Y-123666200D03*
%TO.P,SW30,1,1*%
%TO.N,COL 3*%
X90963800Y-121126200D03*
%TD*%
%TO.P,SW36,2,2*%
%TO.N,Net-(D36-A)*%
X103663800Y-85566200D03*
%TO.P,SW36,1,1*%
%TO.N,COL 8*%
X110013800Y-83026200D03*
%TD*%
%TO.P,SW33,2,2*%
%TO.N,Net-(D33-A)*%
X103663800Y-28416200D03*
%TO.P,SW33,1,1*%
%TO.N,COL 8*%
X110013800Y-25876200D03*
%TD*%
%TO.P,SW31,2,2*%
%TO.N,Net-(D31-A)*%
X84613800Y-142716200D03*
%TO.P,SW31,1,1*%
%TO.N,COL 2*%
X90963800Y-140176200D03*
%TD*%
%TO.P,SW29,2,2*%
%TO.N,Net-(D29-A)*%
X84613800Y-104616200D03*
%TO.P,SW29,1,1*%
%TO.N,COL 4*%
X90963800Y-102076200D03*
%TD*%
%TO.P,SW26,2,2*%
%TO.N,Net-(D26-A)*%
X84613800Y-47466200D03*
%TO.P,SW26,1,1*%
%TO.N,COL 7*%
X90963800Y-44926200D03*
%TD*%
%TO.P,SW25,2,2*%
%TO.N,Net-(D25-A)*%
X84613800Y-28416200D03*
%TO.P,SW25,1,1*%
%TO.N,COL 8*%
X90963800Y-25876200D03*
%TD*%
%TO.P,SW28,2,2*%
%TO.N,Net-(D28-A)*%
X84613800Y-85566200D03*
%TO.P,SW28,1,1*%
%TO.N,COL 5*%
X90963800Y-83026200D03*
%TD*%
%TO.P,SW27,2,2*%
%TO.N,Net-(D27-A)*%
X84613800Y-66516200D03*
%TO.P,SW27,1,1*%
%TO.N,COL 6*%
X90963800Y-63976200D03*
%TD*%
%TO.P,SW22,2,2*%
%TO.N,Net-(D22-A)*%
X65563800Y-123666200D03*
%TO.P,SW22,1,1*%
%TO.N,COL 3*%
X71913800Y-121126200D03*
%TD*%
%TO.P,SW19,2,2*%
%TO.N,Net-(D19-A)*%
X65563800Y-66516200D03*
%TO.P,SW19,1,1*%
%TO.N,COL 6*%
X71913800Y-63976200D03*
%TD*%
%TO.P,SW24,2,2*%
%TO.N,Net-(D24-A)*%
X65563800Y-161766200D03*
%TO.P,SW24,1,1*%
%TO.N,COL 1*%
X71913800Y-159226200D03*
%TD*%
%TO.P,SW16,2,2*%
%TO.N,Net-(D16-A)*%
X46513800Y-161766200D03*
%TO.P,SW16,1,1*%
%TO.N,COL 1*%
X52863800Y-159226200D03*
%TD*%
%TO.P,SW21,2,2*%
%TO.N,Net-(D21-A)*%
X65563800Y-104616200D03*
%TO.P,SW21,1,1*%
%TO.N,COL 4*%
X71913800Y-102076200D03*
%TD*%
%TO.P,SW18,2,2*%
%TO.N,Net-(D18-A)*%
X65563800Y-47681200D03*
%TO.P,SW18,1,1*%
%TO.N,COL 7*%
X71913800Y-45141200D03*
%TD*%
%TO.P,SW17,2,2*%
%TO.N,Net-(D17-A)*%
X65563800Y-28416200D03*
%TO.P,SW17,1,1*%
%TO.N,COL 8*%
X71913800Y-25876200D03*
%TD*%
%TO.P,SW23,2,2*%
%TO.N,Net-(D23-A)*%
X65563800Y-142716200D03*
%TO.P,SW23,1,1*%
%TO.N,COL 2*%
X71913800Y-140176200D03*
%TD*%
%TO.P,SW20,2,2*%
%TO.N,Net-(D20-A)*%
X65563800Y-85566200D03*
%TO.P,SW20,1,1*%
%TO.N,COL 5*%
X71913800Y-83026200D03*
%TD*%
%TO.P,SW15,2,2*%
%TO.N,Net-(D15-A)*%
X46513800Y-142716200D03*
%TO.P,SW15,1,1*%
%TO.N,COL 2*%
X52863800Y-140176200D03*
%TD*%
%TO.P,SW14,2,2*%
%TO.N,Net-(D14-A)*%
X46513800Y-123666200D03*
%TO.P,SW14,1,1*%
%TO.N,COL 3*%
X52863800Y-121126200D03*
%TD*%
%TO.P,SW12,2,2*%
%TO.N,Net-(D12-A)*%
X46513800Y-85566200D03*
%TO.P,SW12,1,1*%
%TO.N,COL 5*%
X52863800Y-83026200D03*
%TD*%
%TO.P,SW11,2,2*%
%TO.N,Net-(D11-A)*%
X46513800Y-66516200D03*
%TO.P,SW11,1,1*%
%TO.N,COL 6*%
X52863800Y-63976200D03*
%TD*%
%TO.P,SW9,2,2*%
%TO.N,Net-(D9-A)*%
X46513800Y-28416200D03*
%TO.P,SW9,1,1*%
%TO.N,COL 8*%
X52863800Y-25876200D03*
%TD*%
%TO.P,SW8,2,2*%
%TO.N,Net-(D8-A)*%
X27463800Y-161766200D03*
%TO.P,SW8,1,1*%
%TO.N,COL 1*%
X33813800Y-159226200D03*
%TD*%
%TO.P,SW4,2,2*%
%TO.N,Net-(D4-A)*%
X27463800Y-85566200D03*
%TO.P,SW4,1,1*%
%TO.N,COL 5*%
X33813800Y-83026200D03*
%TD*%
%TO.P,SW7,2,2*%
%TO.N,Net-(D7-A)*%
X27463800Y-142716200D03*
%TO.P,SW7,1,1*%
%TO.N,COL 2*%
X33813800Y-140176200D03*
%TD*%
%TO.P,SW6,2,2*%
%TO.N,Net-(D6-A)*%
X27463800Y-123666200D03*
%TO.P,SW6,1,1*%
%TO.N,COL 3*%
X33813800Y-121126200D03*
%TD*%
%TO.P,SW13,2,2*%
%TO.N,Net-(D13-A)*%
X46513800Y-104616200D03*
%TO.P,SW13,1,1*%
%TO.N,COL 4*%
X52863800Y-102076200D03*
%TD*%
%TO.P,SW2,2,2*%
%TO.N,Net-(D2-A)*%
X27463800Y-47466200D03*
%TO.P,SW2,1,1*%
%TO.N,COL 7*%
X33813800Y-44926200D03*
%TD*%
%TO.P,SW10,2,2*%
%TO.N,Net-(D10-A)*%
X46513800Y-47466200D03*
%TO.P,SW10,1,1*%
%TO.N,COL 7*%
X52863800Y-44926200D03*
%TD*%
%TO.P,SW5,2,2*%
%TO.N,Net-(D5-A)*%
X27463800Y-104616200D03*
%TO.P,SW5,1,1*%
%TO.N,COL 4*%
X33813800Y-102076200D03*
%TD*%
%TO.P,SW3,2,2*%
%TO.N,Net-(D3-A)*%
X27463800Y-66516200D03*
%TO.P,SW3,1,1*%
%TO.N,COL 6*%
X33813800Y-63976200D03*
%TD*%
%TO.P,SW1,2,2*%
%TO.N,Net-(D1-A)*%
X27463800Y-28416200D03*
%TO.P,SW1,1,1*%
%TO.N,COL 8*%
X33813800Y-25876200D03*
%TD*%
%TO.P,SW56,2,2*%
%TO.N,Net-(D56-A)*%
X141763800Y-161766200D03*
%TO.P,SW56,1,1*%
%TO.N,COL 3*%
X148113800Y-159226200D03*
%TD*%
%TO.P,SW51,2,2*%
%TO.N,Net-(D51-A)*%
X141763800Y-66516200D03*
%TO.P,SW51,1,1*%
%TO.N,COL 4*%
X148113800Y-63976200D03*
%TD*%
%TO.P,SW53,2,2*%
%TO.N,Net-(D53-A)*%
X141763800Y-104616200D03*
%TO.P,SW53,1,1*%
%TO.N,COL 3*%
X148113800Y-102076200D03*
%TD*%
%TO.P,SW54,2,2*%
%TO.N,Net-(D54-A)*%
X141763800Y-123666200D03*
%TO.P,SW54,1,1*%
%TO.N,COL 3*%
X148113800Y-121126200D03*
%TD*%
%TO.P,SW52,2,2*%
%TO.N,Net-(D52-A)*%
X141763800Y-85566200D03*
%TO.P,SW52,1,1*%
%TO.N,COL 4*%
X148113800Y-83026200D03*
%TD*%
%TO.P,SW49,2,2*%
%TO.N,Net-(D49-A)*%
X141763800Y-28416200D03*
%TO.P,SW49,1,1*%
%TO.N,COL 4*%
X148113800Y-25876200D03*
%TD*%
%TO.P,SW50,2,2*%
%TO.N,Net-(D50-A)*%
X141763800Y-47681200D03*
%TO.P,SW50,1,1*%
%TO.N,COL 4*%
X148113800Y-45141200D03*
%TD*%
%TO.P,SW55,2,2*%
%TO.N,Net-(D55-A)*%
X141763800Y-142716200D03*
%TO.P,SW55,1,1*%
%TO.N,COL 3*%
X148113800Y-140176200D03*
%TD*%
D12*
%TO.P,U1,1,GND*%
%TO.N,GND*%
X211613800Y-59531200D03*
D13*
%TO.P,U1,2,VCC*%
%TO.N,Net-(A1-+5V)*%
X214153800Y-59531200D03*
%TO.P,U1,3,SCL*%
%TO.N,SCL*%
X216693800Y-59531200D03*
%TO.P,U1,4,SDA*%
%TO.N,SDA*%
X219233800Y-59531200D03*
%TD*%
D14*
%TO.P,A1,1,TX1*%
%TO.N,COL 8*%
X210978800Y-138112500D03*
D15*
%TO.P,A1,2,RX1*%
%TO.N,COL 7*%
X210978800Y-140652500D03*
%TO.P,A1,3,~{RESET}*%
%TO.N,unconnected-(A1-~{RESET}-Pad3)*%
X210978800Y-143192500D03*
%TO.P,A1,4,GND*%
%TO.N,GND*%
X210978800Y-145732500D03*
%TO.P,A1,5,D2*%
%TO.N,COL 1*%
X210978800Y-148272500D03*
%TO.P,A1,6,D3*%
X210978800Y-150812500D03*
%TO.P,A1,7,D4*%
X210978800Y-153352500D03*
%TO.P,A1,8,D5*%
X210978800Y-155892500D03*
%TO.P,A1,9,D6*%
X210978800Y-158432500D03*
%TO.P,A1,10,D7*%
X210978800Y-160972500D03*
%TO.P,A1,11,D8*%
X210978800Y-163512500D03*
%TO.P,A1,12,D9*%
X210978800Y-166052500D03*
%TO.P,A1,13,D10*%
X210978800Y-168592500D03*
%TO.P,A1,14,MOSI*%
%TO.N,COL 2*%
X210978800Y-171132500D03*
%TO.P,A1,15,MISO*%
%TO.N,COL 3*%
X210978800Y-173672500D03*
%TO.P,A1,16,SCK*%
%TO.N,COL 4*%
X226218800Y-173672500D03*
%TO.P,A1,17,3V3*%
%TO.N,unconnected-(A1-3V3-Pad17)*%
X226218800Y-171132500D03*
%TO.P,A1,18,AREF*%
%TO.N,unconnected-(A1-AREF-Pad18)*%
X226218800Y-168592500D03*
%TO.P,A1,19,A0*%
%TO.N,COL 5*%
X226218800Y-166052500D03*
%TO.P,A1,20,A1*%
%TO.N,COL 6*%
X226218800Y-163512500D03*
%TO.P,A1,21,A2*%
%TO.N,unconnected-(A1-A2-Pad21)*%
X226218800Y-160972500D03*
%TO.P,A1,22,A3*%
%TO.N,unconnected-(A1-A3-Pad22)*%
X226218800Y-158432500D03*
%TO.P,A1,23,SDA/A4*%
%TO.N,SDA*%
X226218800Y-155892500D03*
%TO.P,A1,24,SCL/A5*%
%TO.N,SCL*%
X226218800Y-153352500D03*
%TO.P,A1,25,A6*%
%TO.N,unconnected-(A1-A6-Pad25)*%
X226218800Y-150812500D03*
%TO.P,A1,26,A7*%
%TO.N,unconnected-(A1-A7-Pad26)*%
X226218800Y-148272500D03*
%TO.P,A1,27,+5V*%
%TO.N,Net-(A1-+5V)*%
X226218800Y-145732500D03*
%TO.P,A1,28,~{RESET}*%
%TO.N,unconnected-(A1-~{RESET}-Pad28)*%
X226218800Y-143192500D03*
%TO.P,A1,29,GND*%
%TO.N,GND*%
X226218800Y-140652500D03*
%TO.P,A1,30,VIN*%
%TO.N,unconnected-(A1-VIN-Pad30)*%
X226218800Y-138112500D03*
%TD*%
D16*
%TO.N,Net-(D62-A)*%
X193921300Y-124303800D03*
%TO.N,Net-(D61-A)*%
X198860500Y-110514500D03*
%TO.N,Net-(D60-A)*%
X195210600Y-87054200D03*
%TO.N,Net-(D59-A)*%
X168651600Y-141048700D03*
%TO.N,Net-(D58-A)*%
X158895500Y-133661700D03*
%TO.N,Net-(D57-A)*%
X199638400Y-28032000D03*
%TO.N,Net-(D56-A)*%
X146538100Y-129928100D03*
%TO.N,Net-(D55-A)*%
X143184400Y-128024500D03*
%TO.N,Net-(D52-A)*%
X195574500Y-88807900D03*
X199460500Y-112368500D03*
%TO.N,Net-(D51-A)*%
X196817800Y-68664400D03*
%TO.N,Net-(D50-A)*%
X197567100Y-46656000D03*
%TO.N,Net-(D49-A)*%
X143550300Y-97219000D03*
%TO.N,Net-(D46-A)*%
X181556900Y-121316800D03*
%TO.N,Net-(D45-A)*%
X172230100Y-110340000D03*
%TO.N,Net-(D44-A)*%
X125623500Y-141689400D03*
%TO.N,Net-(D43-A)*%
X168088200Y-65876900D03*
%TO.N,Net-(D42-A)*%
X129647200Y-136914700D03*
%TO.N,Net-(D41-A)*%
X123154800Y-132919400D03*
%TO.N,Net-(D40-A)*%
X105505900Y-135617800D03*
%TO.N,Net-(D39-A)*%
X104708900Y-135137500D03*
%TO.N,Net-(D37-A)*%
X105700400Y-112915800D03*
%TO.N,Net-(D36-A)*%
X104707300Y-112713500D03*
%TO.N,Net-(D35-A)*%
X189269200Y-69196400D03*
%TO.N,Net-(D34-A)*%
X105505900Y-97629500D03*
%TO.N,Net-(D33-A)*%
X184755200Y-34372500D03*
%TO.N,Net-(D32-A)*%
X103877900Y-96808500D03*
%TO.N,Net-(D31-A)*%
X105358500Y-85644200D03*
%TO.N,Net-(D30-A)*%
X86782100Y-91782000D03*
%TO.N,Net-(D29-A)*%
X86782100Y-76994900D03*
%TO.N,Net-(D26-A)*%
X87319900Y-62106800D03*
%TO.N,Net-(D25-A)*%
X95745500Y-60497300D03*
%TO.N,Net-(D24-A)*%
X78954900Y-59308100D03*
%TO.N,Net-(D23-A)*%
X83704600Y-56822200D03*
%TO.N,Net-(D22-A)*%
X119023800Y-55469100D03*
X119023800Y-111248900D03*
X67015000Y-113496000D03*
%TO.N,Net-(D21-A)*%
X198475600Y-38981500D03*
X80806500Y-41621300D03*
%TO.N,Net-(D20-A)*%
X68855300Y-55227800D03*
%TO.N,Net-(D19-A)*%
X68855300Y-37969800D03*
%TO.N,Net-(D18-A)*%
X65867500Y-35725700D03*
%TO.N,Net-(D16-A)*%
X47183800Y-100439300D03*
%TO.N,Net-(D15-A)*%
X185086100Y-136706500D03*
%TO.N,Net-(D14-A)*%
X184435900Y-115979400D03*
%TO.N,Net-(D13-A)*%
X48653400Y-91782000D03*
%TO.N,Net-(D12-A)*%
X47940700Y-82171400D03*
%TO.N,Net-(D10-A)*%
X48737200Y-61459400D03*
%TO.N,Net-(D9-A)*%
X59891900Y-57050700D03*
%TO.N,Net-(D8-A)*%
X44952900Y-56758500D03*
%TO.N,Net-(D7-A)*%
X180598600Y-57605100D03*
X39198100Y-57146900D03*
%TO.N,Net-(D6-A)*%
X180199300Y-110558200D03*
%TO.N,Net-(D5-A)*%
X37591500Y-58154000D03*
%TO.N,Net-(D4-A)*%
X27026100Y-44569100D03*
%TO.N,Net-(D3-A)*%
X39923000Y-37794900D03*
%TO.N,Net-(D2-A)*%
X182392400Y-41650100D03*
%TO.N,COL 5*%
X92757700Y-97629500D03*
%TO.N,COL 4*%
X164399100Y-172402500D03*
X149253600Y-100281400D03*
%TO.N,COL 6*%
X221055100Y-85620300D03*
%TO.N,COL 2*%
X197749900Y-83167800D03*
X199980100Y-135369800D03*
%TO.N,COL 7*%
X98203000Y-99838300D03*
%TO.N,COL 8*%
X201692700Y-82384100D03*
%TO.N,COL 3*%
X149525900Y-171324500D03*
X146538100Y-115422600D03*
%TD*%
D17*
%TO.N,Net-(D62-A)*%
X193921300Y-147336200D02*
X193921300Y-124303800D01*
X202028800Y-155443700D02*
X193921300Y-147336200D01*
%TO.N,Net-(D61-A)*%
X203466100Y-149756400D02*
X202028800Y-151193700D01*
X203466100Y-146113300D02*
X203466100Y-149756400D01*
X198858800Y-141506000D02*
X203466100Y-146113300D01*
X198858800Y-110516200D02*
X198858800Y-141506000D01*
X198860500Y-110514500D02*
X198858800Y-110516200D01*
%TO.N,Net-(D60-A)*%
X194972800Y-139887700D02*
X202028800Y-146943700D01*
X194972800Y-87292000D02*
X194972800Y-139887700D01*
X195210600Y-87054200D02*
X194972800Y-87292000D01*
%TO.N,Net-(D59-A)*%
X168651600Y-128384800D02*
X168651600Y-141048700D01*
X168174500Y-127907700D02*
X168651600Y-128384800D01*
X168174500Y-122551700D02*
X168174500Y-127907700D01*
X168475800Y-122250400D02*
X168174500Y-122551700D01*
X168475800Y-119858800D02*
X168475800Y-122250400D01*
X168059800Y-119442800D02*
X168475800Y-119858800D01*
X168059800Y-107003900D02*
X168059800Y-119442800D01*
X161933300Y-100877400D02*
X168059800Y-107003900D01*
X161933300Y-86767500D02*
X161933300Y-100877400D01*
X162129500Y-86571300D02*
X161933300Y-86767500D01*
X162129500Y-82332700D02*
X162129500Y-86571300D01*
X161933300Y-82136500D02*
X162129500Y-82332700D01*
X161933300Y-67739500D02*
X161933300Y-82136500D01*
X160710000Y-66516200D02*
X161933300Y-67739500D01*
%TO.N,Net-(D58-A)*%
X160885800Y-47642000D02*
X160710000Y-47466200D01*
X160885800Y-63747400D02*
X160885800Y-47642000D01*
X158009400Y-66623800D02*
X160885800Y-63747400D01*
X158009400Y-126757900D02*
X158009400Y-66623800D01*
X158895500Y-127644000D02*
X158009400Y-126757900D01*
X158895500Y-133661700D02*
X158895500Y-127644000D01*
%TO.N,Net-(D57-A)*%
X200463900Y-132628800D02*
X202028800Y-134193700D01*
X200463900Y-109058200D02*
X200463900Y-132628800D01*
X198558900Y-107153200D02*
X200463900Y-109058200D01*
X198558900Y-81092500D02*
X198558900Y-107153200D01*
X196209500Y-78743100D02*
X198558900Y-81092500D01*
X196209500Y-31460900D02*
X196209500Y-78743100D01*
X199638400Y-28032000D02*
X196209500Y-31460900D01*
%TO.N,Net-(D56-A)*%
X142220700Y-161309300D02*
X141763800Y-161766200D01*
X142220700Y-144683900D02*
X142220700Y-161309300D01*
X146538100Y-140366500D02*
X142220700Y-144683900D01*
X146538100Y-129928100D02*
X146538100Y-140366500D01*
%TO.N,Net-(D55-A)*%
X143184400Y-141295600D02*
X141763800Y-142716200D01*
X143184400Y-128024500D02*
X143184400Y-141295600D01*
%TO.N,Net-(D52-A)*%
X195574500Y-106223300D02*
X195574500Y-88807900D01*
X199560500Y-110209300D02*
X195574500Y-106223300D01*
X199560500Y-112268500D02*
X199560500Y-110209300D01*
X199460500Y-112368500D02*
X199560500Y-112268500D01*
%TO.N,Net-(D51-A)*%
X198988800Y-70835400D02*
X198988800Y-90039400D01*
X196817800Y-68664400D02*
X198988800Y-70835400D01*
X199155100Y-105820000D02*
X202028800Y-108693700D01*
X199155100Y-90205700D02*
X199155100Y-105820000D01*
X198988800Y-90039400D02*
X199155100Y-90205700D01*
X198988800Y-90039400D02*
X199155100Y-90205700D01*
%TO.N,Net-(D50-A)*%
X200443500Y-102858400D02*
X202028800Y-104443700D01*
X200443500Y-90725900D02*
X200443500Y-102858400D01*
X199555300Y-89837700D02*
X200443500Y-90725900D01*
X199555300Y-48644200D02*
X199555300Y-89837700D01*
X197567100Y-46656000D02*
X199555300Y-48644200D01*
%TO.N,Net-(D49-A)*%
X142399300Y-29051700D02*
X141763800Y-28416200D01*
X142399300Y-36864000D02*
X142399300Y-29051700D01*
X143178500Y-37643200D02*
X142399300Y-36864000D01*
X143178500Y-48515600D02*
X143178500Y-37643200D01*
X143009100Y-48685000D02*
X143178500Y-48515600D01*
X143009100Y-56617700D02*
X143009100Y-48685000D01*
X143165500Y-56774100D02*
X143009100Y-56617700D01*
X143165500Y-67363600D02*
X143165500Y-56774100D01*
X142974400Y-67554700D02*
X143165500Y-67363600D01*
X142974400Y-75478600D02*
X142974400Y-67554700D01*
X143166100Y-75670300D02*
X142974400Y-75478600D01*
X143166100Y-86877700D02*
X143166100Y-75670300D01*
X142989300Y-87054500D02*
X143166100Y-86877700D01*
X142989300Y-96658000D02*
X142989300Y-87054500D01*
X143550300Y-97219000D02*
X142989300Y-96658000D01*
%TO.N,Net-(D46-A)*%
X189541100Y-154021400D02*
X188118800Y-155443700D01*
X189541100Y-142051700D02*
X189541100Y-154021400D01*
X181556900Y-134067500D02*
X189541100Y-142051700D01*
X181556900Y-121316800D02*
X181556900Y-134067500D01*
%TO.N,Net-(D45-A)*%
X172230100Y-126744900D02*
X172230100Y-110340000D01*
X177695400Y-132210200D02*
X172230100Y-126744900D01*
X178473600Y-132210200D02*
X177695400Y-132210200D01*
X179796700Y-133533300D02*
X178473600Y-132210200D01*
X179796700Y-142871600D02*
X179796700Y-133533300D01*
X188118800Y-151193700D02*
X179796700Y-142871600D01*
%TO.N,Net-(D44-A)*%
X123349300Y-86201700D02*
X122713800Y-85566200D01*
X123349300Y-93953500D02*
X123349300Y-86201700D01*
X124167600Y-94771800D02*
X123349300Y-93953500D01*
X124167600Y-105411500D02*
X124167600Y-94771800D01*
X123924400Y-105654700D02*
X124167600Y-105411500D01*
X123924400Y-113578600D02*
X123924400Y-105654700D01*
X124116100Y-113770300D02*
X123924400Y-113578600D01*
X124116100Y-124977700D02*
X124116100Y-113770300D01*
X123939300Y-125154500D02*
X124116100Y-124977700D01*
X123939300Y-140005200D02*
X123939300Y-125154500D01*
X125623500Y-141689400D02*
X123939300Y-140005200D01*
%TO.N,Net-(D43-A)*%
X168088200Y-71902700D02*
X168088200Y-65876900D01*
X172342400Y-76156900D02*
X168088200Y-71902700D01*
X172342400Y-109601500D02*
X172342400Y-76156900D01*
X172342500Y-109601500D02*
X172342400Y-109601500D01*
X172831800Y-110090800D02*
X172342500Y-109601500D01*
X172831800Y-110312500D02*
X172831800Y-110090800D01*
X177494300Y-114975000D02*
X172831800Y-110312500D01*
X178283200Y-114975000D02*
X177494300Y-114975000D01*
X180350400Y-117042200D02*
X178283200Y-114975000D01*
X180350400Y-134925300D02*
X180350400Y-117042200D01*
X188118800Y-142693700D02*
X180350400Y-134925300D01*
%TO.N,Net-(D42-A)*%
X129647200Y-123082800D02*
X129647200Y-136914700D01*
X130510700Y-122219300D02*
X129647200Y-123082800D01*
X130510700Y-119558100D02*
X130510700Y-122219300D01*
X130155200Y-119202600D02*
X130510700Y-119558100D01*
X130155200Y-103524800D02*
X130155200Y-119202600D01*
X130510700Y-103169300D02*
X130155200Y-103524800D01*
X130510700Y-100508100D02*
X130510700Y-103169300D01*
X129877000Y-99874400D02*
X130510700Y-100508100D01*
X129877000Y-87767300D02*
X129877000Y-99874400D01*
X123970400Y-81860700D02*
X129877000Y-87767300D01*
X123970400Y-67684200D02*
X123970400Y-81860700D01*
X124168000Y-67486600D02*
X123970400Y-67684200D01*
X124168000Y-63317400D02*
X124168000Y-67486600D01*
X123170700Y-62320100D02*
X124168000Y-63317400D01*
X123170700Y-47923100D02*
X123170700Y-62320100D01*
X122713800Y-47466200D02*
X123170700Y-47923100D01*
%TO.N,Net-(D41-A)*%
X122885100Y-28587500D02*
X122713800Y-28416200D01*
X122885100Y-37017100D02*
X122885100Y-28587500D01*
X119993600Y-39908600D02*
X122885100Y-37017100D01*
X119993600Y-129758200D02*
X119993600Y-39908600D01*
X123154800Y-132919400D02*
X119993600Y-129758200D01*
%TO.N,Net-(D40-A)*%
X105505900Y-143221300D02*
X105505900Y-135617800D01*
X104908900Y-143818300D02*
X105505900Y-143221300D01*
X104908900Y-160521100D02*
X104908900Y-143818300D01*
X103663800Y-161766200D02*
X104908900Y-160521100D01*
%TO.N,Net-(D39-A)*%
X104708900Y-141671100D02*
X103663800Y-142716200D01*
X104708900Y-135137500D02*
X104708900Y-141671100D01*
%TO.N,Net-(D37-A)*%
X105300900Y-113315300D02*
X105700400Y-112915800D01*
X104408900Y-113315300D02*
X105300900Y-113315300D01*
X104092900Y-112999300D02*
X104408900Y-113315300D01*
X104092900Y-105045300D02*
X104092900Y-112999300D01*
X103663800Y-104616200D02*
X104092900Y-105045300D01*
%TO.N,Net-(D36-A)*%
X104707300Y-105997300D02*
X104707300Y-112713500D01*
X105081600Y-105623000D02*
X104707300Y-105997300D01*
X105081600Y-101381000D02*
X105081600Y-105623000D01*
X104708900Y-101008300D02*
X105081600Y-101381000D01*
X104708900Y-91024400D02*
X104708900Y-101008300D01*
X104307200Y-90622700D02*
X104708900Y-91024400D01*
X104307200Y-86209600D02*
X104307200Y-90622700D01*
X103663800Y-85566200D02*
X104307200Y-86209600D01*
%TO.N,Net-(D35-A)*%
X189566100Y-107246400D02*
X188118800Y-108693700D01*
X189566100Y-89885700D02*
X189566100Y-107246400D01*
X189269200Y-89588800D02*
X189566100Y-89885700D01*
X189269200Y-69194800D02*
X189269200Y-89588800D01*
X189269200Y-69194800D02*
X189269200Y-69196400D01*
X189269200Y-69196400D02*
X189194200Y-69271400D01*
X189194200Y-69271400D02*
X189269200Y-69196400D01*
%TO.N,Net-(D34-A)*%
X105505900Y-91053200D02*
X105505900Y-97629500D01*
X104909000Y-90456300D02*
X105505900Y-91053200D01*
X104909000Y-87005000D02*
X104909000Y-90456300D01*
X107890200Y-84023800D02*
X104909000Y-87005000D01*
X107890200Y-73380600D02*
X107890200Y-84023800D01*
X110064600Y-71206200D02*
X107890200Y-73380600D01*
X110064600Y-68038300D02*
X110064600Y-71206200D01*
X104863800Y-62837500D02*
X110064600Y-68038300D01*
X104863800Y-48666200D02*
X104863800Y-62837500D01*
X103663800Y-47466200D02*
X104863800Y-48666200D01*
%TO.N,Net-(D33-A)*%
X186050000Y-34372500D02*
X184755200Y-34372500D01*
X188577200Y-36899700D02*
X186050000Y-34372500D01*
X188577200Y-99735300D02*
X188577200Y-36899700D01*
X188118800Y-100193700D02*
X188577200Y-99735300D01*
%TO.N,Net-(D32-A)*%
X99709400Y-100977000D02*
X103877900Y-96808500D01*
X99709400Y-146670600D02*
X99709400Y-100977000D01*
X84613800Y-161766200D02*
X99709400Y-146670600D01*
%TO.N,Net-(D31-A)*%
X99266500Y-128063500D02*
X84613800Y-142716200D01*
X99266500Y-87981200D02*
X99266500Y-128063500D01*
X103083200Y-84164500D02*
X99266500Y-87981200D01*
X104244500Y-84164500D02*
X103083200Y-84164500D01*
X105358500Y-85278500D02*
X104244500Y-84164500D01*
X105358500Y-85644200D02*
X105358500Y-85278500D01*
%TO.N,Net-(D30-A)*%
X85070700Y-123209300D02*
X84613800Y-123666200D01*
X85070700Y-106583900D02*
X85070700Y-123209300D01*
X86782100Y-104872500D02*
X85070700Y-106583900D01*
X86782100Y-91782000D02*
X86782100Y-104872500D01*
%TO.N,Net-(D29-A)*%
X85070700Y-104159300D02*
X84613800Y-104616200D01*
X85070700Y-87533900D02*
X85070700Y-104159300D01*
X86782100Y-85822500D02*
X85070700Y-87533900D01*
X86782100Y-76994900D02*
X86782100Y-85822500D01*
%TO.N,Net-(D26-A)*%
X85070700Y-47923100D02*
X84613800Y-47466200D01*
X85070700Y-59857600D02*
X85070700Y-47923100D01*
X87319900Y-62106800D02*
X85070700Y-59857600D01*
%TO.N,Net-(D25-A)*%
X90979800Y-55731600D02*
X95745500Y-60497300D01*
X90979800Y-48870100D02*
X90979800Y-55731600D01*
X85070700Y-42961000D02*
X90979800Y-48870100D01*
X85070700Y-28873100D02*
X85070700Y-42961000D01*
X84613800Y-28416200D02*
X85070700Y-28873100D01*
%TO.N,Net-(D24-A)*%
X62871900Y-159074300D02*
X65563800Y-161766200D01*
X62871900Y-116788300D02*
X62871900Y-159074300D01*
X66765900Y-112894300D02*
X62871900Y-116788300D01*
X67244400Y-112894300D02*
X66765900Y-112894300D01*
X72946800Y-107191900D02*
X67244400Y-112894300D01*
X72946800Y-105288600D02*
X72946800Y-107191900D01*
X78954900Y-99280500D02*
X72946800Y-105288600D01*
X78954900Y-59308100D02*
X78954900Y-99280500D01*
%TO.N,Net-(D23-A)*%
X81719500Y-58807300D02*
X83704600Y-56822200D01*
X81719500Y-109311500D02*
X81719500Y-58807300D01*
X68880400Y-122150600D02*
X81719500Y-109311500D01*
X68880400Y-122774200D02*
X68880400Y-122150600D01*
X66020700Y-125633900D02*
X68880400Y-122774200D01*
X66020700Y-142259300D02*
X66020700Y-125633900D01*
X65563800Y-142716200D02*
X66020700Y-142259300D01*
%TO.N,Net-(D22-A)*%
X67015000Y-122215000D02*
X65563800Y-123666200D01*
X67015000Y-113496000D02*
X67015000Y-122215000D01*
X119023800Y-111248900D02*
X119023800Y-55469100D01*
%TO.N,Net-(D21-A)*%
X78353200Y-91826800D02*
X65563800Y-104616200D01*
X78353200Y-44074600D02*
X78353200Y-91826800D01*
X80806500Y-41621300D02*
X78353200Y-44074600D01*
X198475600Y-39125600D02*
X198475600Y-38981500D01*
X201037500Y-41687500D02*
X198475600Y-39125600D01*
%TO.N,Net-(D20-A)*%
X66020700Y-85109300D02*
X65563800Y-85566200D01*
X66020700Y-68483900D02*
X66020700Y-85109300D01*
X68855300Y-65649300D02*
X66020700Y-68483900D01*
X68855300Y-55227800D02*
X68855300Y-65649300D01*
%TO.N,Net-(D19-A)*%
X66020700Y-66059300D02*
X65563800Y-66516200D01*
X66020700Y-49648900D02*
X66020700Y-66059300D01*
X68855300Y-46814300D02*
X66020700Y-49648900D01*
X68855300Y-37969800D02*
X68855300Y-46814300D01*
%TO.N,Net-(D18-A)*%
X65563800Y-36029400D02*
X65563800Y-47681200D01*
X65867500Y-35725700D02*
X65563800Y-36029400D01*
%TO.N,Net-(D16-A)*%
X43832800Y-103790300D02*
X47183800Y-100439300D01*
X43832800Y-159085200D02*
X43832800Y-103790300D01*
X46513800Y-161766200D02*
X43832800Y-159085200D01*
%TO.N,Net-(D15-A)*%
X185086100Y-86228900D02*
X185086100Y-136706500D01*
X187127500Y-84187500D02*
X185086100Y-86228900D01*
%TO.N,Net-(D14-A)*%
X184435900Y-82629100D02*
X184435900Y-115979400D01*
X187127500Y-79937500D02*
X184435900Y-82629100D01*
%TO.N,Net-(D13-A)*%
X48653400Y-102476600D02*
X48653400Y-91782000D01*
X46513800Y-104616200D02*
X48653400Y-102476600D01*
%TO.N,Net-(D12-A)*%
X46513800Y-83598300D02*
X47940700Y-82171400D01*
X46513800Y-85566200D02*
X46513800Y-83598300D01*
%TO.N,Net-(D10-A)*%
X47653600Y-48606000D02*
X46513800Y-47466200D01*
X47653600Y-60375800D02*
X47653600Y-48606000D01*
X48737200Y-61459400D02*
X47653600Y-60375800D01*
%TO.N,Net-(D9-A)*%
X53438800Y-50597600D02*
X59891900Y-57050700D01*
X53438800Y-49429100D02*
X53438800Y-50597600D01*
X46970700Y-42961000D02*
X53438800Y-49429100D01*
X46970700Y-28873100D02*
X46970700Y-42961000D01*
X46513800Y-28416200D02*
X46970700Y-28873100D01*
%TO.N,Net-(D8-A)*%
X39599800Y-62111600D02*
X44952900Y-56758500D01*
X39599800Y-149630200D02*
X39599800Y-62111600D01*
X27463800Y-161766200D02*
X39599800Y-149630200D01*
%TO.N,Net-(D7-A)*%
X187127500Y-51076200D02*
X180598600Y-57605100D01*
X187127500Y-50187500D02*
X187127500Y-51076200D01*
X39198100Y-130981900D02*
X39198100Y-57146900D01*
X27463800Y-142716200D02*
X39198100Y-130981900D01*
%TO.N,Net-(D6-A)*%
X179996900Y-110355800D02*
X180199300Y-110558200D01*
X179996900Y-53068100D02*
X179996900Y-110355800D01*
X187127500Y-45937500D02*
X179996900Y-53068100D01*
%TO.N,Net-(D5-A)*%
X37591500Y-63862700D02*
X37591500Y-58154000D01*
X34234800Y-67219400D02*
X37591500Y-63862700D01*
X34234800Y-71606400D02*
X34234800Y-67219400D01*
X30163700Y-75677500D02*
X34234800Y-71606400D01*
X30163700Y-85344000D02*
X30163700Y-75677500D01*
X27809100Y-87698600D02*
X30163700Y-85344000D01*
X27809100Y-104270900D02*
X27809100Y-87698600D01*
X27463800Y-104616200D02*
X27809100Y-104270900D01*
%TO.N,Net-(D4-A)*%
X24767800Y-46827400D02*
X27026100Y-44569100D01*
X24767800Y-82870200D02*
X24767800Y-46827400D01*
X27463800Y-85566200D02*
X24767800Y-82870200D01*
%TO.N,Net-(D3-A)*%
X39923000Y-54057000D02*
X39923000Y-37794900D01*
X27463800Y-66516200D02*
X39923000Y-54057000D01*
%TO.N,Net-(D2-A)*%
X182367000Y-33698000D02*
X187127500Y-28937500D01*
X182367000Y-41624700D02*
X182367000Y-33698000D01*
X182367000Y-41624700D02*
X182392400Y-41650100D01*
%TO.N,COL 5*%
X129089200Y-159200800D02*
X129063800Y-159226200D01*
X129089200Y-140201600D02*
X129089200Y-159200800D01*
X129063800Y-140176200D02*
X129089200Y-140201600D01*
X129075500Y-121114500D02*
X129063800Y-121126200D01*
X129075500Y-102087900D02*
X129075500Y-121114500D01*
X129063800Y-102076200D02*
X129075500Y-102087900D01*
X91238500Y-83300900D02*
X90963800Y-83026200D01*
X91238500Y-96110300D02*
X91238500Y-83300900D01*
X92757700Y-97629500D02*
X91238500Y-96110300D01*
X129045500Y-140157900D02*
X129063800Y-140176200D01*
X129045500Y-136665600D02*
X129045500Y-140157900D01*
X129089200Y-136621900D02*
X129045500Y-136665600D01*
X129089200Y-121151600D02*
X129089200Y-136621900D01*
X129063800Y-121126200D02*
X129089200Y-121151600D01*
%TO.N,COL 4*%
X148536100Y-83448500D02*
X148113800Y-83026200D01*
X148536100Y-99563900D02*
X148536100Y-83448500D01*
X149253600Y-100281400D02*
X148536100Y-99563900D01*
X148164600Y-25927000D02*
X148113800Y-25876200D01*
X148164600Y-45090400D02*
X148164600Y-25927000D01*
X148113800Y-45141200D02*
X148164600Y-45090400D01*
X148140200Y-82999800D02*
X148113800Y-83026200D01*
X148140200Y-63976200D02*
X148140200Y-82999800D01*
X148113800Y-63976200D02*
X148140200Y-63976200D01*
X148140200Y-45167600D02*
X148113800Y-45141200D01*
X148140200Y-63976200D02*
X148140200Y-45167600D01*
X157507700Y-126955700D02*
X157743100Y-127191100D01*
X157507700Y-108535500D02*
X157507700Y-126955700D01*
X149253600Y-100281400D02*
X157507700Y-108535500D01*
X157743100Y-127191100D02*
X157907900Y-127355900D01*
X157743100Y-127191100D02*
X157907900Y-127355900D01*
X157907900Y-165911300D02*
X164399100Y-172402500D01*
X157907900Y-127355900D02*
X157907900Y-165911300D01*
%TO.N,SDA*%
X226218800Y-155892500D02*
X226218800Y-154790800D01*
X228131800Y-136879700D02*
X227896400Y-136644300D01*
X228131800Y-153015500D02*
X228131800Y-136879700D01*
X226356500Y-154790800D02*
X228131800Y-153015500D01*
X226218800Y-154790800D02*
X226356500Y-154790800D01*
X227742100Y-68039500D02*
X219233800Y-59531200D01*
X227742100Y-136490000D02*
X227742100Y-68039500D01*
X227896400Y-136644300D02*
X227742100Y-136490000D01*
X227896400Y-136644300D02*
X227742100Y-136490000D01*
%TO.N,COL 6*%
X221055100Y-131139200D02*
X221055100Y-85620300D01*
X227328400Y-137412500D02*
X221055100Y-131139200D01*
X227328400Y-148813300D02*
X227328400Y-137412500D01*
X226430900Y-149710800D02*
X227328400Y-148813300D01*
X225688900Y-149710800D02*
X226430900Y-149710800D01*
X225058400Y-150341300D02*
X225688900Y-149710800D01*
X225058400Y-161388100D02*
X225058400Y-150341300D01*
X226081100Y-162410800D02*
X225058400Y-161388100D01*
X226218800Y-162410800D02*
X226081100Y-162410800D01*
X226218800Y-163512500D02*
X226218800Y-162410800D01*
X129114600Y-44875400D02*
X129063800Y-44926200D01*
X129114600Y-25927000D02*
X129114600Y-44875400D01*
X129063800Y-25876200D02*
X129114600Y-25927000D01*
X129089200Y-83000800D02*
X129063800Y-83026200D01*
X129089200Y-63976200D02*
X129089200Y-83000800D01*
X129063800Y-63976200D02*
X129089200Y-63976200D01*
X129089200Y-44951600D02*
X129063800Y-44926200D01*
X129089200Y-63976200D02*
X129089200Y-44951600D01*
%TO.N,COL 2*%
X167129800Y-64046000D02*
X167060000Y-63976200D01*
X167129800Y-82956400D02*
X167129800Y-64046000D01*
X167060000Y-83026200D02*
X167129800Y-82956400D01*
X167094900Y-25911100D02*
X167060000Y-25876200D01*
X167094900Y-44926200D02*
X167094900Y-25911100D01*
X167060000Y-44926200D02*
X167094900Y-44926200D01*
X167094900Y-63941300D02*
X167060000Y-63976200D01*
X167094900Y-44926200D02*
X167094900Y-63941300D01*
X210978800Y-171132500D02*
X210978800Y-170030800D01*
X210750500Y-170030800D02*
X210978800Y-170030800D01*
X206417000Y-165697300D02*
X210750500Y-170030800D01*
X206417000Y-140847300D02*
X206417000Y-165697300D01*
X200459800Y-134890100D02*
X206417000Y-140847300D01*
X200459800Y-134890100D02*
X199980100Y-135369800D01*
X197749900Y-107437500D02*
X197749900Y-83167800D01*
X200062200Y-109749800D02*
X197749900Y-107437500D01*
X200062200Y-134492500D02*
X200062200Y-109749800D01*
X200459800Y-134890100D02*
X200062200Y-134492500D01*
%TO.N,GND*%
X211207100Y-144630800D02*
X210978800Y-144630800D01*
X212116800Y-143721100D02*
X211207100Y-144630800D01*
X212116800Y-60034200D02*
X212116800Y-143721100D01*
X211613800Y-59531200D02*
X212116800Y-60034200D01*
X210978800Y-145732500D02*
X210978800Y-144630800D01*
%TO.N,SCL*%
X226218800Y-153352500D02*
X226218800Y-152250800D01*
X227730100Y-137046000D02*
X227494700Y-136810600D01*
X227730100Y-150967800D02*
X227730100Y-137046000D01*
X226447100Y-152250800D02*
X227730100Y-150967800D01*
X226218800Y-152250800D02*
X226447100Y-152250800D01*
X227328400Y-70165800D02*
X216693800Y-59531200D01*
X227328400Y-136644300D02*
X227328400Y-70165800D01*
X227494700Y-136810600D02*
X227328400Y-136644300D01*
X227494700Y-136810600D02*
X227328400Y-136644300D01*
%TO.N,COL 7*%
X110064600Y-121177000D02*
X110064600Y-138954800D01*
X110013800Y-121126200D02*
X110064600Y-121177000D01*
X110064600Y-159175400D02*
X110013800Y-159226200D01*
X110064600Y-138954800D02*
X110064600Y-159175400D01*
X110064600Y-140125400D02*
X110013800Y-140176200D01*
X110064600Y-138954800D02*
X110064600Y-140125400D01*
X110064600Y-121075400D02*
X110013800Y-121126200D01*
X110064600Y-102127000D02*
X110064600Y-121075400D01*
X110013800Y-102076200D02*
X110064600Y-102127000D01*
X98203000Y-52165400D02*
X90963800Y-44926200D01*
X98203000Y-99838300D02*
X98203000Y-52165400D01*
%TO.N,COL 8*%
X210978800Y-91670200D02*
X201692700Y-82384100D01*
X210978800Y-138112500D02*
X210978800Y-91670200D01*
X110466300Y-64428700D02*
X110013800Y-63976200D01*
X110466300Y-82573700D02*
X110466300Y-64428700D01*
X110013800Y-83026200D02*
X110466300Y-82573700D01*
X110064600Y-44977000D02*
X110064600Y-45398400D01*
X110013800Y-44926200D02*
X110064600Y-44977000D01*
X110064600Y-63925400D02*
X110013800Y-63976200D01*
X110064600Y-45398400D02*
X110064600Y-63925400D01*
X110064600Y-25927000D02*
X110013800Y-25876200D01*
X110064600Y-45398400D02*
X110064600Y-25927000D01*
%TO.N,Net-(A1-+5V)*%
X225990500Y-144630800D02*
X226218800Y-144630800D01*
X214153800Y-132794100D02*
X225990500Y-144630800D01*
X214153800Y-59531200D02*
X214153800Y-132794100D01*
X226218800Y-145732500D02*
X226218800Y-144630800D01*
%TO.N,COL 1*%
X177958800Y-112943700D02*
X177958800Y-108693700D01*
X210978800Y-150812500D02*
X210978800Y-153352500D01*
X210978800Y-168592500D02*
X210978800Y-166052500D01*
X176967500Y-54437500D02*
X176967500Y-50187500D01*
X210978800Y-155892500D02*
X210978800Y-158432500D01*
X177958800Y-129943700D02*
X177958800Y-125693700D01*
X190877500Y-54437500D02*
X190877500Y-50187500D01*
X191868800Y-163943700D02*
X191868800Y-159693700D01*
X177958800Y-151193700D02*
X177958800Y-146943700D01*
X177958800Y-121443700D02*
X177958800Y-117193700D01*
X191868800Y-146943700D02*
X191868800Y-142693700D01*
X190877500Y-33187500D02*
X190877500Y-28937500D01*
X191868800Y-134193700D02*
X191868800Y-129943700D01*
X190877500Y-62937500D02*
X190877500Y-58687500D01*
X176967500Y-28937500D02*
X176967500Y-24687500D01*
X177958800Y-159693700D02*
X177958800Y-155443700D01*
X176967500Y-58687500D02*
X176967500Y-62937500D01*
X210978800Y-160972500D02*
X210978800Y-163512500D01*
X176967500Y-67187500D02*
X176967500Y-62937500D01*
X176967500Y-79937500D02*
X176967500Y-75687500D01*
X176967500Y-45937500D02*
X176967500Y-41687500D01*
X191868800Y-108693700D02*
X191868800Y-104443700D01*
X191868800Y-117193700D02*
X191868800Y-121443700D01*
X191868800Y-138443700D02*
X191868800Y-134193700D01*
X210978800Y-148272500D02*
X210978800Y-150812500D01*
X176967500Y-37437500D02*
X176967500Y-33187500D01*
X190877500Y-88437500D02*
X190877500Y-84187500D01*
X190877500Y-75687500D02*
X190877500Y-71437500D01*
X190877500Y-79937500D02*
X190877500Y-75687500D01*
X191868800Y-112943700D02*
X191868800Y-117193700D01*
X191868800Y-155443700D02*
X191868800Y-151193700D01*
X190877500Y-24687500D02*
X190877500Y-28937500D01*
X191868800Y-125693700D02*
X191868800Y-121443700D01*
X191868800Y-104443700D02*
X191868800Y-100193700D01*
X190877500Y-99202400D02*
X190877500Y-88437500D01*
X191868800Y-100193700D02*
X190877500Y-99202400D01*
X190877500Y-38799600D02*
X190877500Y-33187500D01*
X190877500Y-41687500D02*
X190877500Y-38799600D01*
X190877500Y-38799600D02*
X190877500Y-37437500D01*
X177958800Y-163943700D02*
X177958800Y-159693700D01*
X190877500Y-67187500D02*
X190877500Y-62937500D01*
X176967500Y-71437500D02*
X176967500Y-67187500D01*
X177958800Y-134193700D02*
X177958800Y-138443700D01*
X190877500Y-45937500D02*
X190877500Y-50187500D01*
X176967500Y-88437500D02*
X176967500Y-84187500D01*
X176967500Y-84187500D02*
X176967500Y-79937500D01*
X176967500Y-41687500D02*
X176967500Y-37437500D01*
X177958800Y-142693700D02*
X177958800Y-140568700D01*
X177958800Y-140568700D02*
X177958800Y-138443700D01*
X177958800Y-140568700D02*
X177958800Y-146943700D01*
X176967500Y-33187500D02*
X176967500Y-28937500D01*
X176967500Y-50187500D02*
X176967500Y-45937500D01*
X177958800Y-108693700D02*
X177958800Y-104443700D01*
X177958800Y-102318700D02*
X177958800Y-104443700D01*
X177958800Y-102277400D02*
X177958800Y-102318700D01*
X177958800Y-101624300D02*
X177958800Y-102277400D01*
X177958800Y-101327400D02*
X177958800Y-101624300D01*
X177958800Y-101286100D02*
X177958800Y-101327400D01*
X177958800Y-100193700D02*
X177958800Y-100336100D01*
X177958800Y-100336100D02*
X177958800Y-101286100D01*
X176967500Y-99202400D02*
X176967500Y-88437500D01*
X177958800Y-100193700D02*
X176967500Y-99202400D01*
X190877500Y-45937500D02*
X190877500Y-41687500D01*
X191868800Y-112943700D02*
X191868800Y-108693700D01*
X210978800Y-158432500D02*
X210978800Y-160972500D01*
X176967500Y-75687500D02*
X176967500Y-71437500D01*
X190877500Y-54437500D02*
X190877500Y-58687500D01*
X191868800Y-129943700D02*
X191868800Y-125693700D01*
X177958800Y-125693700D02*
X177958800Y-121443700D01*
X191868800Y-151193700D02*
X191868800Y-146943700D01*
X210978800Y-153352500D02*
X210978800Y-155892500D01*
X176967500Y-58687500D02*
X176967500Y-54437500D01*
X190877500Y-67187500D02*
X190877500Y-71437500D01*
X190877500Y-79937500D02*
X190877500Y-84187500D01*
%TO.N,COL 3*%
X148139200Y-159200800D02*
X148113800Y-159226200D01*
X148139200Y-140176200D02*
X148139200Y-159200800D01*
X148113800Y-140176200D02*
X148139200Y-140176200D01*
X148139200Y-121151600D02*
X148113800Y-121126200D01*
X148139200Y-140176200D02*
X148139200Y-121151600D01*
X149252100Y-160364500D02*
X148113800Y-159226200D01*
X149252100Y-171050700D02*
X149252100Y-160364500D01*
X149525900Y-171324500D02*
X149252100Y-171050700D01*
X148125500Y-115410900D02*
X148113800Y-115422600D01*
X148125500Y-102087900D02*
X148125500Y-115410900D01*
X148113800Y-102076200D02*
X148125500Y-102087900D01*
X148113800Y-115422600D02*
X148113800Y-121126200D01*
X148113800Y-115422600D02*
X146538100Y-115422600D01*
%TD*%
M02*
